<svg width="141" height="73" viewBox="0 0 141 73" fill="none" xmlns="http://www.w3.org/2000/svg">
<circle cx="63.332" cy="35" r="35" fill="#EC7050"/>
<path d="M70.3269 18.6667C79.3476 18.6667 86.6603 25.9793 86.6603 35C86.6603 43.8328 79.6491 51.0279 70.8883 51.3238L70.3269 51.3333H56.3367C47.3161 51.3333 40.0034 44.0207 40.0034 35C40.0034 26.1673 47.0146 18.9721 55.7752 18.6761L56.3367 18.6667H70.3269ZM70.3269 22.1667H56.3367C49.2491 22.1667 43.5034 27.9123 43.5034 35C43.5034 41.9148 48.9722 47.5522 55.8206 47.8231L56.3367 47.8333H70.3269C77.4144 47.8333 83.1603 42.0877 83.1603 35C83.1603 28.0852 77.6914 22.4477 70.8431 22.1769L70.3269 22.1667ZM53.9985 28C54.965 28 55.7485 28.7835 55.7485 29.75L55.7464 33.2453L59.2485 33.247C60.215 33.247 60.9985 34.0305 60.9985 34.997C60.9985 35.9637 60.215 36.747 59.2485 36.747L55.7464 36.7453L55.7485 40.25C55.7485 41.2165 54.965 42 53.9985 42C53.032 42 52.2485 41.2165 52.2485 40.25L52.2464 36.7453L48.7485 36.747C47.782 36.747 46.9985 35.9637 46.9985 34.997C46.9985 34.0305 47.782 33.247 48.7485 33.247L52.2464 33.2453L52.2485 29.75C52.2485 28.7835 53.032 28 53.9985 28ZM69.7485 36.1667C71.3592 36.1667 72.6652 37.4724 72.6652 39.0833C72.6652 40.6943 71.3592 42 69.7485 42C68.1376 42 66.8318 40.6943 66.8318 39.0833C66.8318 37.4724 68.1376 36.1667 69.7485 36.1667ZM74.4152 28C76.0259 28 77.3318 29.3058 77.3318 30.9167C77.3318 32.5276 76.0259 33.8333 74.4152 33.8333C72.8042 33.8333 71.4985 32.5276 71.4985 30.9167C71.4985 29.3058 72.8042 28 74.4152 28Z" fill="white"/>
<path d="M25.7852 46.2397C10.7848 52.5392 1.62978 58.4354 2.60195 61.9396C4.26545 67.9357 34.9506 64.6576 71.1391 54.6179C107.328 44.5781 135.316 31.5785 133.652 25.5824C132.542 21.582 118.515 21.7096 98.554 25.219" stroke="#FDA994"/>
<circle cx="132.332" cy="27" r="8" fill="#EC7050"/>
</svg>
