<svg width="56" height="55" viewBox="0 0 56 55" fill="none" xmlns="http://www.w3.org/2000/svg">
<g filter="url(#filter0_d_291_1331)">
<rect width="48.64" height="48" rx="24" fill="white"/>
</g>
<path fill-rule="evenodd" clip-rule="evenodd" d="M34.4532 24C34.4532 23.3096 33.8935 22.75 33.2032 22.75H19.0379L25.2073 16.6618C25.708 16.1676 25.7066 15.3589 25.2041 14.8665V14.8665C24.7134 14.3856 23.9277 14.387 23.4387 14.8696L14.2895 23.8984C14.2329 23.9543 14.2329 24.0457 14.2895 24.1016L23.4383 33.13C23.927 33.6124 24.7127 33.6124 25.2014 33.13V33.13C25.6991 32.6389 25.6995 31.8357 25.2022 31.3442L19.0379 25.25H33.2032C33.8935 25.25 34.4532 24.6904 34.4532 24V24Z" fill="#333333"/>
<defs>
<filter id="filter0_d_291_1331" x="0" y="0" width="55.6401" height="55" filterUnits="userSpaceOnUse" color-interpolation-filters="sRGB">
<feFlood flood-opacity="0" result="BackgroundImageFix"/>
<feColorMatrix in="SourceAlpha" type="matrix" values="0 0 0 0 0 0 0 0 0 0 0 0 0 0 0 0 0 0 127 0" result="hardAlpha"/>
<feOffset dx="5" dy="5"/>
<feGaussianBlur stdDeviation="1"/>
<feColorMatrix type="matrix" values="0 0 0 0 0 0 0 0 0 0 0 0 0 0 0 0 0 0 0.1 0"/>
<feBlend mode="normal" in2="BackgroundImageFix" result="effect1_dropShadow_291_1331"/>
<feBlend mode="normal" in="SourceGraphic" in2="effect1_dropShadow_291_1331" result="shape"/>
</filter>
</defs>
</svg>
