<svg width="141" height="73" viewBox="0 0 141 73" fill="none" xmlns="http://www.w3.org/2000/svg">
<circle cx="63.332" cy="35" r="35" fill="#E85860"/>
<path d="M53.332 23C53.332 21.8954 54.2275 21 55.332 21H71.332C72.4366 21 73.332 21.8954 73.332 23V27C73.332 28.1046 72.4366 29 71.332 29H55.332C54.2275 29 53.332 28.1046 53.332 27V23ZM56.332 26H70.332V24H56.332V26ZM47.332 20C47.332 17.2386 49.5706 15 52.332 15H75.332C78.0934 15 80.332 17.2386 80.332 20V48.5C80.332 49.3284 79.6604 50 78.832 50H50.332C50.332 51.1046 51.2275 52 52.332 52H78.832C79.6604 52 80.332 52.6716 80.332 53.5C80.332 54.3284 79.6604 55 78.832 55H52.332C49.5706 55 47.332 52.7614 47.332 50V20ZM50.332 47H77.332V20C77.332 18.8954 76.4366 18 75.332 18H52.332C51.2275 18 50.332 18.8954 50.332 20V47Z" fill="white"/>
<path d="M25.7852 46.2397C10.7848 52.5392 1.62978 58.4354 2.60195 61.9396C4.26545 67.9357 34.9506 64.6576 71.1391 54.6179C107.328 44.5781 135.316 31.5785 133.652 25.5824C132.542 21.582 118.515 21.7096 98.554 25.219" stroke="#FEAAAF"/>
<circle cx="132.332" cy="27" r="8" fill="#E85860"/>
</svg>
