<svg width="1441" height="479" viewBox="0 0 1441 479" fill="none" xmlns="http://www.w3.org/2000/svg">
<path d="M619 148.05C390.445 70.2182 111.771 162.306 0 215.161V432.784C475.33 516.065 667.622 483.41 897.179 362.031C1080.83 264.928 1336.25 344.959 1441 397.112V0C1211.44 10.758 1184.38 120.677 1118.72 160.201C1053.06 199.725 904.694 245.34 619 148.05Z" fill="#6C64D0"/>
<mask id="mask0_291_1210" style="mask-type:alpha" maskUnits="userSpaceOnUse" x="1" y="0" width="1440" height="470">
<path d="M619 148.05C397.301 70.235 151.643 162.271 43.2245 215.114C21.5 258.211 1 299.507 1 432.69C368.5 494.67 690.82 483.306 913.492 361.953C1091.63 264.871 1339.39 344.885 1441 397.026V0C1218.33 10.7557 1185.19 119.06 1121.5 158.575C1057.81 198.091 896.124 245.319 619 148.05Z" fill="#548EF7"/>
</mask>
<g mask="url(#mask0_291_1210)">
<path d="M833.609 340.154C350.975 274.454 -26.9221 402.136 -155.542 474.19C-317.491 561.516 -363.95 657.954 -292.319 791.229C-235.014 897.849 530.305 713.01 905.802 607.262C1082.84 545.602 1316.24 405.855 833.609 340.154Z" fill="url(#paint0_linear_291_1210)"/>
<path d="M699.546 168.761C1062.58 298.802 1439.04 229.182 1581.89 178.117C1760.01 117.072 1847.86 31.236 1857.56 -106.289C1865.33 -216.31 1140.88 -145.894 777.685 -96.9339C600.375 -62.5526 336.512 38.7203 699.546 168.761Z" fill="url(#paint1_linear_291_1210)"/>
</g>
<g clip-path="url(#clip0_291_1210)">
<path d="M432.635 215.066C431.744 214.398 430.877 213.708 429.942 213.107C429.163 212.618 428.362 212.15 427.494 211.839C426.626 211.527 425.959 211.06 426.181 210.17C426.315 209.613 427.071 208.79 427.45 208.834C428.095 208.923 428.941 209.502 429.163 210.058C430.031 212.306 430.454 212.484 432.39 211.06C434.148 209.769 435.928 208.478 437.664 207.121C438.554 206.431 439.288 206.409 440.2 207.121C442.515 208.923 444.829 210.748 447.232 212.417C448.055 212.974 449.235 213.33 450.236 213.285C453.107 213.174 456 212.885 458.848 212.529C459.493 212.439 460.072 211.794 460.673 211.394C460.161 210.971 459.693 210.348 459.115 210.192C452.995 208.434 450.08 201.112 454.42 195.125C458.47 189.54 467.015 190.808 469.64 195.971C471.999 200.622 471.176 206.275 466.169 209.101C465.323 209.569 463.899 209.791 464.366 211.238C464.789 212.529 466.058 212.083 466.97 212.039C470.108 211.928 473.245 211.816 476.36 211.46C477.406 211.349 478.474 210.637 479.387 209.992C481.768 208.345 484.038 206.587 486.374 204.873C488.399 203.404 488.622 203.404 490.669 204.917C492.404 206.186 494.14 207.41 495.854 208.701C496.766 209.391 497.345 209.569 497.723 208.144C497.856 207.61 498.746 206.943 499.258 206.965C499.815 206.965 500.682 207.633 500.816 208.167C500.927 208.589 500.215 209.346 499.703 209.747C498.346 210.837 496.899 211.794 495.498 212.818C495.097 213.107 494.696 213.441 494.251 213.619C493.94 213.753 493.539 213.664 493.161 213.664C493.228 213.263 493.161 212.773 493.384 212.484C493.762 211.972 494.318 211.616 494.963 211.037C493.139 209.302 491.314 207.877 489.178 206.965C488.733 206.765 487.909 207.121 487.42 207.454C485.328 208.79 483.415 210.503 481.212 211.549C477.54 213.263 476.85 215.689 477.94 219.45C478.808 222.432 478.92 225.636 479.298 228.752C479.409 229.665 479.81 230.199 480.7 230.421C481.434 230.599 482.124 230.911 482.836 231.067C485.106 231.578 486.285 233.225 486.908 235.25C487.865 238.344 487.999 241.526 487.131 244.686C486.53 246.912 484.816 248.225 482.458 248.336C478.831 248.514 475.203 248.737 471.576 248.959C469.907 249.07 469.663 249.493 470.619 250.851C471.932 252.676 473.312 254.412 474.714 256.17C475.448 257.104 475.715 257.861 475.404 259.219C474.936 261.377 474.692 263.803 476.694 265.583C478.252 266.985 479.832 268.343 481.367 269.745C482.769 271.013 482.791 271.77 481.456 273.105C480.588 273.996 479.721 274.908 478.764 275.687C478.43 275.954 477.607 276.065 477.362 275.843C477.073 275.576 477.095 274.886 477.117 274.396C477.117 274.085 477.406 273.773 477.584 273.461C478.897 270.991 478.875 270.813 476.739 268.944C476.093 268.387 475.515 267.72 474.758 267.364C472.934 266.473 472.6 265.027 472.644 263.18C472.711 259.308 472.644 259.33 468.795 259.33C463.476 259.33 458.136 259.374 452.817 259.33C451.349 259.33 450.103 259.664 448.968 260.621C447.121 262.134 445.163 263.514 443.316 265.027C442.136 266.006 442.181 266.451 443.449 267.297C445.185 268.454 446.987 269.522 448.723 270.68C450.459 271.837 450.614 272.749 449.413 274.374C448.701 275.331 447.966 276.31 447.054 277C446.631 277.311 445.719 277 445.051 277C445.207 276.444 445.229 275.776 445.563 275.331C446.943 273.417 446.921 273.172 444.985 271.837C443.138 270.568 441.335 269.233 439.533 267.898C438.264 266.963 438.175 266.429 439.355 265.428C441.869 263.313 444.495 261.355 447.032 259.263C448.1 258.395 449.168 257.483 450.014 256.414C451.816 254.167 453.463 251.83 455.443 249.182C454.175 249.093 453.329 248.981 452.461 248.959C448.122 248.848 443.805 248.803 439.466 248.692C436.84 248.625 435.238 247.09 434.348 244.775C432.568 240.124 433.725 235.985 437.063 232.535C438.042 231.512 439.733 231.089 441.179 230.666C442.225 230.354 442.915 229.954 443.36 228.93C444.673 225.926 446.053 222.944 447.41 219.962C447.544 219.65 447.677 219.316 447.766 218.982C448.523 216.401 448.501 216.423 446.275 214.887C444.117 213.374 442.025 211.772 439.911 210.214C438.932 209.502 438.02 209.502 437.085 210.325C436.195 211.104 435.149 211.727 434.259 212.529C433.636 213.085 433.169 213.842 432.635 214.509C432.635 214.687 432.635 214.865 432.635 215.043V215.066ZM449.769 243.418C453.129 243.128 455.955 242.906 458.781 242.639C460.272 242.483 461.54 241.415 461.54 240.391C461.54 239.256 460.05 237.543 458.759 237.52C455.577 237.498 452.395 237.52 449.235 237.721C447.299 237.832 445.407 238.277 443.471 238.522C441.958 238.722 442.181 239.902 442.047 240.903C441.914 241.904 442.47 242.416 443.36 242.55C445.652 242.884 447.966 243.195 449.769 243.44V243.418ZM471.554 237.164C471.554 237.164 471.554 237.231 471.554 237.276C469.907 237.276 468.261 237.231 466.636 237.276C465.39 237.32 463.944 239.011 463.921 240.235C463.921 241.348 465.39 243.106 466.48 243.128C470.063 243.218 473.646 243.373 477.206 243.262C480.566 243.151 480.321 243.663 480.143 239.635C480.099 238.477 479.52 237.921 478.385 237.832C476.116 237.632 473.824 237.387 471.554 237.187V237.164ZM444.228 229.598C444.495 229.665 444.629 229.754 444.762 229.754C447.877 229.464 450.993 229.153 454.108 228.863C455.221 228.752 455.109 228.151 454.731 227.417C454.086 226.126 453.441 224.835 452.795 223.567C451.772 221.564 450.726 219.583 449.591 217.425C447.722 221.675 445.986 225.592 444.228 229.62V229.598ZM476.138 217.068C474.046 221.141 472.177 224.835 470.174 228.752C470.886 228.93 471.331 229.108 471.799 229.175C473.534 229.397 475.248 229.575 476.984 229.776C478.497 229.954 478.786 229.665 478.497 228.129C477.874 224.902 477.228 221.675 476.583 218.47C476.516 218.137 476.383 217.825 476.138 217.091V217.068ZM441.268 239.924C441.291 237.787 440.356 235.25 439.043 233.715C438.398 232.936 437.842 232.802 437.085 233.604C433.858 236.964 433.725 241.215 435.327 245.265C435.55 245.844 436.017 246.355 436.44 246.823C437.085 247.579 437.775 247.624 438.442 246.823C440.089 244.798 441.268 242.594 441.246 239.902L441.268 239.924ZM449.146 234.382C449.146 234.16 449.168 233.937 449.19 233.737C447.076 234.16 444.918 234.494 442.848 235.05C442.381 235.161 441.825 236.029 441.825 236.541C441.825 237.498 442.67 237.409 443.405 237.32C444.695 237.164 445.964 237.009 447.254 236.942C450.726 236.764 454.197 236.675 457.668 236.497C458.069 236.474 458.47 236.007 458.87 235.74C458.292 234.983 457.757 233.67 457.112 233.581C455.109 233.359 453.04 233.604 451.015 233.67C451.104 233.871 451.193 234.049 451.304 234.249C450.993 234.805 450.681 235.384 450.392 235.94C449.991 235.428 449.591 234.917 449.19 234.382H449.146ZM480.833 239.457C481.323 241.348 481.768 243.529 482.502 245.621C483.081 247.312 484.149 247.424 485.106 245.91C486.775 243.284 486.508 240.28 486.263 237.387C486.174 236.274 485.729 235.139 485.195 234.16C484.861 233.537 484.06 232.736 483.504 232.78C482.947 232.802 482.146 233.67 481.946 234.316C481.456 235.851 481.234 237.498 480.833 239.479V239.457ZM471.888 233.314C471.888 233.314 471.888 233.448 471.866 233.515C470.82 233.581 469.796 233.693 468.75 233.693C467.504 233.693 466.881 234.427 466.391 235.406C466.035 236.141 466.213 236.519 467.081 236.563C470.842 236.697 474.603 236.83 478.363 236.986C479.231 237.031 479.988 236.808 479.899 235.874C479.854 235.362 479.253 234.605 478.786 234.516C476.516 234.026 474.202 233.715 471.91 233.337L471.888 233.314Z" fill="white" fill-opacity="0.75"/>
<path d="M1379.85 152.375C1380.74 150.928 1382.3 150.594 1383.7 150.038C1385.57 149.303 1385.75 148.97 1385.37 146.989C1385.15 145.854 1385.04 144.697 1384.79 143.584C1384.7 143.161 1384.44 142.694 1384.1 142.404C1381.45 140.001 1378.76 137.664 1376.09 135.261C1374.98 134.259 1374.98 133.636 1375.8 132.434C1377.23 130.365 1378.65 128.273 1380.05 126.181C1380.19 125.981 1380.27 125.758 1380.39 125.513C1379.72 125.068 1379.1 124.668 1378.45 124.245C1378.49 124.156 1378.56 124.089 1378.61 124C1379.07 124.289 1379.52 124.601 1379.99 124.89C1381.17 125.602 1382.43 125.758 1383.81 125.602C1385.77 125.402 1387.75 125.402 1389.73 125.313C1389.89 125.313 1390.04 125.335 1390.22 125.602C1389.71 125.669 1389.2 125.758 1388.66 125.78C1386.73 125.869 1384.79 125.936 1382.83 126.047C1382.57 126.047 1382.23 126.225 1382.08 126.448C1380.61 128.451 1379.21 130.498 1377.74 132.523C1377.23 133.213 1377.36 133.725 1377.96 134.282C1380.7 136.752 1383.39 139.244 1386.11 141.737C1386.24 141.848 1386.37 142.026 1386.51 142.026C1388.37 142.093 1390.24 142.16 1392.11 142.115C1392.67 142.115 1392.71 141.158 1392.18 140.713C1391.87 140.446 1391.49 140.268 1391.16 140.046C1387.71 137.753 1387.6 132.568 1390.93 130.098C1395.47 126.76 1401.1 129.185 1401.73 134.771C1401.95 136.641 1401.26 138.31 1399.79 139.378C1398.54 140.268 1396.99 140.691 1395.61 141.381C1395.25 141.559 1394.96 141.915 1394.65 142.204C1394.98 142.36 1395.32 142.605 1395.65 142.649C1397.79 142.894 1399.92 143.072 1402.06 143.295C1402.91 143.384 1403.42 143.74 1403.51 144.697C1403.6 145.743 1403.86 146.766 1404.06 147.812C1404.49 150.238 1404.89 152.642 1405.31 155.067C1405.44 155.779 1405.26 156.358 1404.64 156.759C1402.86 157.894 1401.1 159.029 1399.3 160.119C1398.43 160.653 1397.5 161.121 1396.56 161.521C1396.25 161.655 1395.65 161.655 1395.5 161.454C1394.87 160.675 1394.05 160.586 1393.2 160.542C1392.11 160.497 1391 160.542 1389.91 160.542C1389.91 160.653 1389.87 160.764 1389.87 160.853C1390.04 161.054 1390.2 161.254 1390.38 161.432C1392.34 163.324 1394.27 165.238 1396.25 167.129C1397.81 168.598 1399.41 170.045 1401.01 171.469C1402.08 172.448 1402.06 172.737 1400.77 173.294C1399.75 173.739 1398.7 174.206 1397.65 174.607C1397.03 174.852 1396.65 175.208 1396.7 175.898C1396.83 177.633 1396.94 179.369 1397.19 181.083C1397.23 181.461 1397.79 181.929 1398.21 182.062C1399.95 182.641 1401.75 183.086 1403.51 183.62C1404.35 183.865 1405.2 184.176 1406.02 184.466C1406.8 184.733 1407.09 185.333 1406.89 186.09C1406.47 187.715 1405.98 189.339 1404.62 190.474C1404.33 190.719 1403.86 190.697 1403.46 190.808C1403.42 190.408 1403.22 189.962 1403.33 189.606C1403.53 188.961 1403.91 188.382 1404.17 187.759C1404.64 186.646 1404.44 185.979 1403.31 185.601C1401.5 185 1399.66 184.488 1397.81 184.065C1396.21 183.709 1395.85 183.509 1395.54 181.884C1395.25 180.304 1395.03 178.724 1394.83 177.122C1394.72 176.298 1394.41 176.009 1393.6 176.343C1391.76 177.122 1389.87 177.834 1388.04 178.702C1387.55 178.924 1387.02 179.503 1386.93 179.992C1386.51 182.062 1386.19 184.154 1385.95 186.246C1385.9 186.691 1386.28 187.292 1386.64 187.626C1388.49 189.228 1390.38 190.808 1392.31 192.321C1393.58 193.301 1393.67 194.057 1392.42 195.081C1391.85 195.571 1391.27 196.038 1390.64 196.461C1389.93 196.95 1389.13 196.795 1388.78 196.149C1388.35 195.393 1388.86 195.014 1389.4 194.658C1389.58 194.547 1389.75 194.436 1389.91 194.324C1390.56 193.879 1390.67 193.434 1390 192.878C1388.26 191.498 1386.57 190.074 1384.81 188.716C1383.7 187.848 1383.41 187.225 1383.77 185.89C1384.41 183.42 1384.93 180.949 1384.88 178.346C1384.88 176.565 1385.35 174.763 1385.66 172.982C1385.95 171.269 1385.86 170.979 1384.17 170.668C1380.52 169.978 1375.62 165.638 1375.69 160.698C1375.74 157.293 1376.67 154.288 1379.81 152.419C1379.45 152.797 1379.05 153.131 1378.78 153.554C1378.65 153.777 1378.63 154.311 1378.78 154.466C1379.38 155.045 1380.07 155.557 1380.76 156.024C1380.96 156.158 1381.41 156.225 1381.59 156.091C1381.81 155.935 1382.08 155.468 1382.01 155.268C1381.48 154.155 1381.08 152.931 1379.79 152.419L1379.85 152.375ZM1384.04 157.382C1384.5 157.182 1384.97 156.937 1385.44 156.781C1386.04 156.581 1386.57 156.358 1386.35 155.579C1386.13 154.823 1385.5 154.889 1384.93 155.001C1382.74 155.357 1380.92 157.56 1381.08 159.63C1381.25 162.167 1383.23 164.103 1385.66 164.103C1385.99 164.103 1386.31 163.991 1386.59 163.925C1386.28 163.591 1386.04 163.324 1385.82 163.079C1386.11 162.812 1386.39 162.567 1386.71 162.278C1386.55 162.233 1386.33 162.144 1386.11 162.1C1383.03 161.632 1382.23 159.83 1384.04 157.337V157.382ZM1401.97 146.9C1397.9 151.262 1393.94 155.468 1390 159.652C1390.02 159.763 1390.04 159.897 1390.07 160.008C1391.78 160.008 1393.52 160.008 1395.23 160.008C1395.45 160.008 1395.72 159.919 1395.92 159.808C1397.72 158.762 1399.48 157.649 1401.3 156.67C1403.19 155.646 1403.68 154.222 1403.08 152.196C1402.57 150.438 1402.3 148.636 1401.95 146.922L1401.97 146.9ZM1385.39 165.26C1385.39 165.26 1385.24 164.837 1385.04 164.815C1384.75 164.748 1384.24 164.837 1384.15 165.015C1383.57 166.284 1383.01 167.552 1382.59 168.865C1382.34 169.666 1383.17 169.778 1383.68 169.867C1383.95 169.911 1384.48 169.622 1384.55 169.377C1384.86 168.108 1385.08 166.795 1385.37 165.26H1385.39ZM1379.03 166.595C1379.38 166.328 1379.63 166.195 1379.83 166.017C1380.43 165.46 1381.05 164.926 1381.59 164.325C1381.81 164.058 1381.81 163.613 1381.9 163.235C1381.48 163.168 1380.99 162.945 1380.65 163.079C1379.87 163.391 1379.14 163.836 1378.45 164.325C1378.18 164.503 1377.89 165.037 1378.01 165.26C1378.23 165.749 1378.67 166.128 1379.05 166.595H1379.03ZM1386.19 153.888C1386.04 152.708 1385.95 151.707 1385.73 150.75C1385.66 150.505 1385.13 150.149 1384.86 150.216C1384.48 150.305 1383.84 150.728 1383.86 150.95C1383.97 151.996 1384.21 153.042 1384.55 154.021C1384.64 154.266 1385.28 154.422 1385.68 154.422C1385.88 154.422 1386.08 153.999 1386.19 153.888ZM1377.49 158.361C1376.47 158.205 1376.2 158.739 1376.14 159.474C1376.09 159.963 1376.11 160.542 1376.8 160.497C1377.85 160.408 1378.9 160.23 1379.92 160.008C1380.14 159.963 1380.45 159.518 1380.45 159.296C1380.45 159.073 1380.05 158.762 1379.79 158.695C1378.98 158.517 1378.16 158.45 1377.49 158.383V158.361ZM1386.44 157.849C1385.37 157.426 1384.26 157.916 1384.06 158.917C1384.01 159.14 1384.12 159.563 1384.26 159.607C1384.48 159.674 1384.88 159.607 1385.04 159.451C1385.53 158.984 1385.95 158.428 1386.44 157.849ZM1387.13 161.032C1386.22 160.52 1385.53 160.208 1384.73 160.609C1385.35 161.165 1385.99 161.632 1387.13 161.032Z" fill="white" fill-opacity="0.75"/>
<path d="M395.985 253.477C396.452 253.188 396.919 252.854 397.409 252.631C398.9 251.964 398.944 251.941 398.833 250.272C398.766 249.471 398.7 248.67 398.611 247.869C398.522 247.045 398.054 246.667 397.231 246.956C395.918 247.401 394.605 247.869 393.292 248.336C392.469 248.625 392.536 248.981 392.981 249.716C394.694 252.475 396.096 255.346 394.449 258.64C394.049 259.419 393.448 260.198 392.78 260.732C391 262.156 389.398 263.825 386.906 264.159C384.124 264.537 381.676 263.914 379.585 262.134C378.405 261.132 377.293 259.953 376.425 258.684C375.869 257.883 375.735 256.748 375.557 255.725C375.357 254.59 375.245 254.434 374.155 254.79C371.997 255.457 369.816 256.147 367.657 256.837C367.435 256.904 367.235 257.038 366.856 257.238C367.212 257.572 367.435 257.839 367.724 258.039C371.952 261.021 376.047 264.181 380.453 266.874C382.277 268.009 383.279 269.278 383.946 271.191C384.569 272.994 384.859 272.994 386.661 272.504C388.352 272.037 390.043 271.659 391.734 271.214C392.625 270.991 393.225 271.28 393.559 272.148C393.893 273.039 394.316 273.884 394.561 274.797C394.65 275.108 394.36 275.509 394.249 275.887C393.893 275.754 393.537 275.62 393.181 275.464C393.136 275.442 393.092 275.353 393.07 275.286C391.757 272.95 391.712 273.239 389.331 273.973C388.263 274.307 387.24 274.752 386.171 275.108C384.814 275.576 384.302 275.442 383.479 274.285C382.722 273.239 382.032 272.126 381.387 271.013C381.009 270.39 380.564 270.123 379.852 270.235C375.179 271.036 370.506 271.859 365.81 272.638C364.831 272.794 364.653 273.35 364.587 274.24C364.475 276.021 365.009 277.178 366.812 277.935C368.637 278.669 370.305 279.826 371.997 280.85C372.353 281.072 372.775 281.696 372.709 282.052C372.531 282.897 372.241 283.854 371.663 284.433C371.062 285.034 369.949 284.299 370.127 283.387C370.35 282.163 369.771 281.607 368.792 281.117C367.257 280.36 365.81 279.448 364.297 278.647C363.385 278.157 363.007 277.489 362.895 276.399C362.45 271.859 363.296 267.43 364.03 263.002C364.32 261.244 364.364 259.419 364.92 257.75C365.655 255.48 366.723 253.299 367.702 251.096C369.66 246.689 371.663 242.305 373.666 237.921C373.999 237.187 373.955 236.608 373.332 236.052C372.108 234.961 370.929 233.826 369.727 232.691C369.26 232.268 368.837 232.268 368.347 232.691C367.123 233.715 365.833 234.672 364.631 235.762C364.253 236.096 364.008 236.675 363.852 237.209C363.652 237.899 363.318 237.81 362.984 237.454C362.406 236.853 361.85 236.23 361.36 235.562C360.937 234.983 360.648 234.271 360.203 233.693C359.914 233.336 359.402 233.136 358.979 232.847C358.512 232.513 357.933 232.268 357.644 231.823C357.243 231.178 357.444 230.51 358.2 230.176C358.957 229.843 359.446 230.199 359.847 230.844C360.581 232.023 361.338 233.158 362.094 234.316C362.539 235.006 363.007 234.894 363.541 234.405C364.92 233.158 366.322 231.957 367.702 230.755C368.614 229.954 369.104 229.976 369.949 230.822C372.864 233.693 375.869 236.452 379.251 238.789C379.918 239.234 380.497 239.79 381.098 240.324C381.788 240.948 382.478 240.903 383.167 240.324C383.301 240.213 383.434 240.102 383.568 239.991C384.191 239.479 385.081 239.078 385.326 238.433C385.526 237.876 384.97 237.053 384.792 236.341C383.434 231 387.64 226.794 393.003 227.728C395.651 228.196 398.789 232.825 396.942 236.274C395.695 238.589 393.893 240.124 391.289 240.458C390.177 240.591 388.997 240.08 387.863 239.946C387.44 239.879 386.883 239.857 386.572 240.057C385.815 240.525 385.148 241.17 384.413 241.726C383.879 242.127 383.902 242.528 384.391 242.928C385.793 244.085 387.173 245.265 388.641 246.311C389.064 246.622 389.821 246.645 390.399 246.533C393.203 245.999 396.007 245.376 398.811 244.753C399.723 244.553 400.213 244.842 400.279 245.821C400.368 247.223 400.502 248.603 400.635 250.005C400.68 250.361 400.836 250.717 400.947 251.051C401.325 250.918 401.704 250.784 402.06 250.628C402.215 250.562 402.327 250.361 402.482 250.339C402.972 250.294 403.528 250.183 403.951 250.339C404.174 250.428 404.396 251.162 404.263 251.407C404.018 251.83 403.395 252.475 403.105 252.386C400.925 251.808 399.211 253.143 397.275 253.655C396.897 253.744 396.497 253.788 396.118 253.833C396.051 253.699 396.007 253.544 395.94 253.41L395.985 253.477ZM392.803 251.407C392.513 250.205 391.334 249.182 390.377 249.471C386.127 250.762 381.899 252.053 377.671 253.41C376.269 253.855 375.846 255.613 376.781 257.127C378.917 255.079 381.387 253.521 384.213 252.831C386.995 252.164 389.888 251.875 392.803 251.407ZM393.225 252.92C390.11 251.185 379.006 254.612 377.471 257.75C380.475 259.308 391.69 255.858 393.225 252.92ZM389.487 257.727C389.643 258.662 389.776 259.73 390.021 260.776C390.11 261.11 390.533 261.355 390.8 261.622C391.045 261.244 391.49 260.865 391.467 260.509C391.378 259.308 391.156 258.106 390.933 256.904C390.889 256.659 390.577 256.259 390.444 256.281C390.155 256.325 389.799 256.548 389.621 256.793C389.487 256.971 389.532 257.327 389.487 257.75V257.727ZM382.9 260.954C382.9 260.954 382.9 260.954 382.878 260.954C382.878 261.466 382.767 262.023 382.923 262.512C383.012 262.846 383.434 263.113 383.701 263.402C383.902 263.091 384.258 262.801 384.28 262.49C384.302 261.422 384.235 260.331 384.146 259.285C384.124 259.018 383.813 258.796 383.635 258.551C383.412 258.773 383.012 258.951 382.967 259.219C382.856 259.797 382.945 260.398 382.945 260.977L382.9 260.954ZM382.277 260.42C382.277 260.42 382.277 260.42 382.255 260.42C382.255 260.109 382.299 259.775 382.255 259.486C382.188 259.196 382.032 258.907 381.899 258.64C381.543 258.818 380.964 258.929 380.875 259.174C380.631 259.953 380.408 260.821 380.519 261.622C380.564 262.023 381.32 262.334 381.743 262.69C381.921 262.312 382.166 261.978 382.277 261.577C382.366 261.221 382.277 260.821 382.277 260.443V260.42ZM392.335 260.086C392.469 260.109 392.602 260.131 392.758 260.175C392.936 259.819 393.314 259.463 393.292 259.129C393.203 257.95 392.981 256.793 392.78 255.636C392.758 255.458 392.469 255.324 392.291 255.168C392.113 255.346 391.779 255.569 391.801 255.725C391.935 257.193 392.157 258.64 392.335 260.109V260.086Z" fill="white" fill-opacity="0.75"/>
<path d="M1180.14 195.415C1181.18 194.68 1181.41 193.501 1181.52 192.388C1181.63 191.431 1181.49 190.452 1181.41 189.495C1181.36 188.738 1180.87 188.427 1180.14 188.449C1179.96 188.449 1179.78 188.449 1179.6 188.471C1177.11 189.117 1175 188.249 1172.97 186.914C1170.12 185.022 1167.27 183.175 1164.43 181.305C1164.18 181.15 1163.96 180.949 1163.74 180.749C1162.91 180.015 1162.33 179.28 1162.4 177.989C1162.67 173.672 1158.46 171.78 1155.59 172.315C1152.9 172.826 1151.16 175.052 1151.41 177.811C1151.61 180.037 1152.5 181.728 1154.66 182.641C1155.28 182.908 1155.39 183.664 1155.06 184.577C1154.81 185.2 1154.37 184.888 1154.01 184.799C1151.76 184.31 1149.54 183.776 1147.29 183.308C1146.94 183.242 1146.51 183.375 1146.14 183.42C1146.22 183.798 1146.22 184.221 1146.4 184.51C1147.54 186.335 1148.85 188.049 1149.85 189.94C1151.41 192.9 1152.72 195.993 1154.23 198.976C1154.97 200.422 1154.7 201.424 1153.7 202.67C1151.76 205.096 1150.05 207.699 1148.25 210.236C1148.25 210.259 1148.23 210.281 1148.2 210.303C1145.87 212.039 1146.11 214.576 1146.11 217.024C1146.11 219.939 1146.11 219.494 1143.64 219.316C1142.91 219.249 1142.17 219.138 1141.44 219.205C1141.06 219.249 1140.51 219.65 1140.44 219.962C1140.28 220.696 1140.3 221.475 1140.39 222.231C1140.42 222.454 1140.88 222.81 1141.13 222.788C1141.46 222.766 1142.02 222.476 1142.06 222.231C1142.26 221.141 1142.91 221.097 1143.82 221.23C1144.67 221.364 1145.51 221.386 1146.38 221.408C1147.56 221.453 1147.71 221.297 1147.74 220.117C1147.74 218.226 1147.74 216.356 1147.74 214.465C1147.74 213.241 1147.92 213.129 1149.16 212.951C1154.08 212.261 1159.02 212.217 1163.96 212.172C1164.27 212.172 1164.67 212.328 1164.89 212.551C1165.87 213.53 1166.83 214.531 1167.74 215.555C1167.99 215.822 1168.12 216.223 1168.16 216.601C1168.45 218.493 1168.72 220.384 1168.94 222.276C1169.01 222.944 1169.26 223.366 1169.9 223.433C1170.86 223.545 1171.81 223.656 1172.79 223.634C1173.08 223.634 1173.62 223.166 1173.62 222.944C1173.59 222.61 1173.24 222.165 1172.93 222.031C1172.37 221.809 1171.73 221.742 1171.12 221.653C1170.48 221.564 1170.23 221.208 1170.21 220.585C1170.17 219.183 1170.06 217.758 1169.99 216.356C1169.95 215.444 1169.7 214.687 1168.97 214.042C1168.25 213.396 1167.68 212.595 1167.01 211.816C1167.45 211.394 1167.1 211.015 1166.61 210.548C1163.47 207.699 1160.35 204.828 1157.24 201.958C1156.1 200.912 1156.08 200.823 1156.79 199.487C1157.57 198.041 1158.37 196.617 1159.2 195.17C1159.66 194.369 1160.33 194.102 1161.27 194.235C1162.49 194.413 1163.71 194.502 1164.96 194.502C1165.72 194.502 1166.34 194.68 1166.83 195.281C1167.32 195.927 1167.85 195.949 1168.5 195.482C1169.21 194.97 1169.97 194.502 1170.72 194.057C1170.95 193.924 1171.41 193.857 1171.48 193.946C1171.64 194.213 1171.77 194.591 1171.73 194.881C1171.48 196.594 1171.17 198.286 1170.92 199.999C1170.92 200.11 1171.1 200.266 1171.21 200.422C1171.3 200.222 1171.44 200.044 1171.46 199.843C1171.66 198.308 1171.81 196.772 1172.01 195.237C1172.01 195.125 1172.1 195.036 1172.26 194.636C1172.82 195.526 1173.24 196.26 1173.71 196.95C1174.17 197.64 1174.22 198.731 1175.24 198.708C1175.24 198.152 1175.15 197.618 1175.24 197.151C1175.98 194.057 1177.49 191.476 1180.2 189.718C1180.4 189.584 1180.78 189.406 1180.89 189.495C1181.07 189.651 1181.2 189.985 1181.2 190.229C1181.25 192.01 1181.16 193.768 1180.14 195.304L1180.2 195.37L1180.14 195.415ZM1173.51 191.409C1173.02 192.143 1172.53 192.9 1172.01 193.679C1171.99 193.679 1171.88 193.657 1171.77 193.59C1170.86 193.056 1171.06 192.255 1171.24 191.431C1171.55 190.074 1172.19 188.961 1173.37 188.227C1173.66 188.049 1174.24 188.227 1174.6 188.405C1174.71 188.449 1174.6 189.094 1174.46 189.428C1174.17 190.118 1173.79 190.764 1173.46 191.431C1173.68 191.298 1173.95 191.186 1174.08 191.008C1174.44 190.519 1174.75 189.985 1175.09 189.495C1175.44 188.961 1176.15 188.85 1176.64 189.25C1177.2 189.718 1176.62 190.007 1176.42 190.341C1175.89 191.209 1175.31 192.054 1174.82 192.945C1174.37 193.79 1174.02 194.68 1173.62 195.571C1172.53 194.792 1172.44 194.413 1172.86 193.345C1173.1 192.722 1173.26 192.077 1173.46 191.453L1173.51 191.409ZM1165.47 191.498C1164.85 190.897 1164.38 190.363 1163.85 189.94C1163.18 189.428 1163.05 189.005 1163.67 188.316C1164.23 187.715 1164.11 187.359 1163.36 187.069C1162.69 186.825 1162 186.691 1161.33 186.513C1160.13 186.224 1158.93 186.001 1157.73 185.667C1157.48 185.601 1157.17 185.155 1157.19 184.933C1157.26 184.377 1156.95 183.531 1157.75 183.331C1159.42 182.952 1160.93 182.418 1161.85 180.794C1162.29 181.572 1162.67 182.262 1163.07 182.952C1163.94 184.443 1164.8 185.934 1165.69 187.425C1166.5 188.783 1165.9 190.007 1165.45 191.453L1165.47 191.498ZM1168.05 190.207C1167.19 188.894 1166.32 187.715 1165.58 186.468C1165.16 185.756 1165.69 185.178 1166.23 184.733C1166.7 184.332 1167.19 183.842 1167.85 184.31C1168.74 184.911 1169.61 185.556 1170.43 186.135C1169.66 187.47 1168.92 188.716 1168.05 190.207ZM1167.59 190.385C1168.41 191.12 1169.12 191.765 1169.92 192.499C1169.3 192.945 1168.79 193.345 1168.25 193.679C1168.03 193.812 1167.63 193.901 1167.48 193.79C1167.25 193.634 1167.05 193.256 1167.07 192.989C1167.19 192.121 1167.41 191.275 1167.59 190.408V190.385ZM1160.98 192.455C1161.38 191.81 1161.53 191.431 1161.82 191.164C1161.98 191.008 1162.42 190.942 1162.54 191.053C1163.07 191.498 1163.54 192.054 1164.03 192.566C1163.98 192.633 1163.96 192.722 1163.91 192.789C1163.02 192.7 1162.11 192.588 1160.96 192.477L1160.98 192.455Z" fill="white" fill-opacity="0.75"/>
<path d="M1313.27 163.502C1312.63 167.841 1311.8 171.38 1311.63 174.941C1310.87 189.406 1296.85 196.906 1284.57 189.317C1284.14 189.05 1283.7 188.761 1282.88 188.249C1283.63 190.341 1286.59 191.698 1283.92 193.679C1284.12 194.057 1284.17 194.324 1284.32 194.413C1288.75 196.995 1289.28 200.355 1286.84 204.762C1285.95 206.342 1286.04 208.434 1285.64 210.526C1283.9 210.392 1283.59 209.146 1284.17 207.454C1284.9 205.296 1285.86 203.204 1286.48 201.023C1287.59 197.195 1284.01 196.238 1281.94 194.925C1280.72 194.146 1278.31 195.103 1276.53 195.615C1276.29 195.682 1276.38 197.863 1276.76 198.909C1278.25 203.004 1278.25 202.848 1274.44 205.029C1272.57 206.097 1271.04 207.722 1268.95 209.435C1268.43 208.478 1267.86 206.943 1269.72 205.563C1270.95 204.65 1272.44 204.05 1273.84 203.36C1275.13 202.737 1276.45 202.024 1275.49 200.355C1274.62 198.82 1274.66 196.149 1271.68 196.795C1270.9 196.973 1270.08 197.039 1268.57 197.262C1269.5 192.321 1270.37 187.826 1271.28 183.019C1268.32 183.064 1265.59 183.331 1262.89 183.13C1258.93 182.841 1258.8 182.485 1259.69 178.791C1260.38 175.875 1260.94 172.893 1264.07 171.38C1264.56 171.135 1265.05 170.111 1264.92 169.622C1264.81 169.154 1263.89 168.776 1263.29 168.554C1262.63 168.287 1261.87 168.287 1261.18 168.064C1258 167.04 1256.02 164.258 1256.11 161.032C1256.2 158.116 1258.31 155.379 1261.11 154.578C1264.36 153.665 1267.48 154.8 1269.26 157.56C1270.95 160.186 1270.68 163.435 1268.59 165.928C1267.97 166.684 1267.28 167.374 1266.63 168.108C1266.79 168.353 1266.97 168.576 1267.12 168.821C1268.1 168.287 1269.21 167.886 1270.04 167.174C1271.99 165.482 1273.93 165.015 1276.2 166.506C1277.67 167.485 1278.83 167.196 1279.81 165.616C1286.35 155.134 1302.32 154.711 1309.45 166.284C1309.71 166.706 1310.07 167.085 1310.89 168.108C1311.11 166.217 1311.47 164.948 1311.36 163.724C1311.11 160.876 1312.12 159.607 1315.14 159.763C1316.94 159.874 1318.77 159.296 1320.57 159.051C1320.57 158.606 1320.55 158.161 1320.53 157.716C1319.59 157.449 1318.68 157.181 1317.75 156.914C1314.3 155.913 1312.4 153.487 1312.27 149.882C1312.16 146.922 1314.05 144.185 1316.92 143.228C1319.97 142.182 1323.31 143.272 1325.18 145.943C1327.07 148.636 1326.85 151.596 1324.64 154.578C1323.95 155.512 1323.53 156.647 1323 157.693C1324.22 158.005 1325.44 158.539 1326.69 158.584C1328.72 158.673 1330.52 158.227 1331.81 160.787C1332.63 162.434 1334.92 163.457 1336.77 164.392C1337.46 164.726 1339.04 164.325 1339.6 163.702C1341.4 161.699 1342.96 159.496 1344.47 157.248C1344.85 156.67 1345.07 155.268 1344.8 155.09C1342.49 153.487 1340.2 151.685 1337.59 150.728C1335.7 150.038 1333.72 149.771 1333.92 147.479C1334.03 146.388 1335.39 144.808 1336.44 144.541C1338.42 144.051 1339.49 145.52 1340.11 147.456C1340.49 148.614 1341.38 149.771 1342.33 150.572C1345.38 153.153 1348.57 155.579 1352.24 158.517C1350.99 158.695 1350.46 158.94 1350.3 158.784C1347.54 156.136 1345.94 157.604 1344.34 160.186C1343.16 162.122 1341.58 163.813 1340.26 165.683C1339.22 167.152 1338.08 167.485 1336.64 166.306C1336.39 166.106 1336.15 165.928 1335.86 165.794C1333.9 164.748 1331.94 163.702 1329.98 162.678C1328.45 165.571 1326.8 168.442 1325.44 171.424C1325.22 171.936 1326 173.116 1326.58 173.761C1329.09 176.521 1331.74 179.169 1334.3 181.884C1334.97 182.596 1335.55 183.397 1336.37 184.399C1335.46 184.822 1334.9 185.022 1334.43 185.356C1333.54 185.979 1332.01 186.713 1332.03 187.381C1332.08 189.206 1332.57 191.298 1335.08 191.298C1338.17 191.298 1341.29 191.142 1344.38 190.986C1347.43 190.808 1349.99 191.52 1351.48 194.68C1346.32 190.964 1340.69 193.323 1335.28 193.256C1332.65 193.234 1331.19 192.299 1330.7 189.718C1330.38 188.071 1330.05 186.09 1327.78 186.468C1325.2 186.891 1322.02 186.001 1320.53 189.428C1318.99 192.989 1318.52 196.149 1321.53 199.398C1323.51 201.535 1324.82 204.317 1326.74 207.254L1321.35 208.033C1321.31 207.788 1321.24 207.544 1321.19 207.321C1322.08 206.92 1322.97 206.542 1324.15 206.03C1322.51 203.56 1321.13 201.134 1319.39 198.998C1317.43 196.572 1316.9 194.146 1318.28 191.298C1318.7 190.408 1318.79 189.339 1319.13 188.026C1317.57 187.96 1316.28 187.915 1314.47 187.848C1314.85 186.602 1315.08 185.556 1315.48 184.577C1316.86 181.328 1318.26 178.101 1319.77 174.918C1320.71 172.982 1320.48 171.38 1318.99 169.822C1317.23 167.975 1315.56 166.061 1313.34 163.569L1313.27 163.502ZM1286.77 174.785C1288.02 170.2 1290.44 167.686 1293.96 167.619C1297.32 167.552 1300.48 169.844 1301.46 173.071C1302.28 175.809 1300.86 179.436 1298.23 181.216C1295.14 183.286 1292.09 182.618 1288.13 179.392C1285.68 179.926 1283.74 180.348 1281.87 180.749C1284.21 187.27 1291.75 190.541 1299.23 187.893C1306.33 185.356 1309.87 177.767 1307.35 170.423C1304.93 163.346 1296.98 159.429 1290.06 161.877C1283.23 164.303 1279.23 170.735 1280.9 175.653L1286.75 174.807L1286.77 174.785ZM1295.34 180.415C1297.9 180.059 1300.17 176.966 1299.83 174.251C1299.52 171.669 1296.32 169.132 1293.85 169.555C1290.98 170.022 1288.88 172.76 1289.28 175.564C1289.71 178.657 1292.4 180.838 1295.34 180.415ZM1268.9 181.528C1268.99 181.083 1269.1 180.616 1269.19 180.17C1266.92 178.813 1264.65 177.478 1261.67 175.72C1261.58 178.145 1261.29 180.705 1261.54 180.749C1263.94 181.239 1266.43 181.328 1268.9 181.528ZM1274.64 168.309L1276.18 178.969C1278.2 173.071 1277.65 168.999 1274.64 168.309ZM1280.23 185.979C1280.36 185.89 1280.47 185.779 1280.61 185.69C1279.54 184.043 1278.45 182.396 1277.38 180.749C1277.07 180.994 1276.73 181.216 1276.42 181.461C1277.69 182.975 1278.96 184.466 1280.23 185.979Z" fill="white" fill-opacity="0.75"/>
<path d="M753.803 281.785H750.866C750.777 281.985 750.577 282.23 750.643 282.319C753.603 287.46 749.664 290.175 746.883 293.357C746.037 294.314 745.681 295.694 744.858 297.363C744.835 297.363 743.812 297.096 743.523 296.473C743.278 295.938 743.678 294.87 744.146 294.314C745.815 292.266 747.639 290.353 749.375 288.35C751.734 285.635 749.33 283.387 748.129 281.54C747.328 280.294 744.924 279.982 743.189 279.515C742.966 279.448 742.143 280.894 741.898 281.718C740.452 286.859 740.474 286.814 735.089 287.638C732.819 287.994 730.594 288.684 728.191 289.284C727.79 288.305 728.124 287.215 730.015 286.903C732.152 286.547 734.288 286.057 736.446 285.902C739.717 285.679 740.185 283.431 740.652 280.85C741.142 278.113 739.317 277.734 737.47 277.156C736.78 276.933 736.135 276.533 735.178 276.065C735.734 275.331 736.09 274.73 736.58 274.263C737.826 273.105 739.094 271.993 740.407 270.902C744.962 267.089 746.868 262.245 746.126 256.37C745.904 254.656 745.948 252.92 745.837 250.472C747.951 251.429 749.33 252.231 750.799 252.676C751.8 252.987 753.425 253.321 753.914 252.809C755.116 251.563 754.048 250.584 752.891 249.671C749.019 246.556 749.375 241.103 753.514 238.789C755.917 237.431 758.254 237.609 760.412 239.234C762.526 240.836 763.728 243.084 762.882 245.666C762.103 248.091 763.016 249.271 764.907 250.539C768.846 253.143 772.651 255.947 776.501 258.684C779.037 260.487 779.705 262.623 778.681 265.294C777.658 267.987 774.943 269.723 772.25 269.433C772.161 269.433 772.028 269.456 771.983 269.433C767.844 265.895 764.24 269.411 760.59 270.502C757.853 271.325 756.095 271.236 754.849 268.543C754.604 268.031 754.226 267.586 753.892 267.141C753.113 266.14 752.579 264.671 750.799 265.672C749.13 266.607 749.419 267.876 749.909 269.322C750.933 272.26 751.912 275.22 752.869 278.179C753.202 279.248 753.469 280.316 753.87 281.762L753.803 281.785ZM759.856 259.953C758.098 260.999 756.74 261.555 755.761 262.49C755.049 263.158 754.181 264.738 754.471 265.227C755.494 266.919 755.873 269.945 758.721 269.322C761.97 268.61 765.085 267.186 768.245 266.073C768.289 265.761 768.356 265.45 768.401 265.138C767.533 264.693 766.509 263.714 765.842 263.914C762.526 264.893 760.568 263.87 759.878 259.931L759.856 259.953ZM766.131 261.8C764.128 258.573 762.37 255.502 760.345 252.587C759.767 251.741 758.343 250.806 757.542 250.962C756.651 251.14 755.517 252.52 755.45 253.477C755.383 254.278 756.451 255.547 757.319 256.014C759.455 257.149 761.258 258.306 761.948 260.91C762.526 263.158 764.24 262.512 766.153 261.778L766.131 261.8ZM777.457 262.735C777.19 262.512 776.567 261.6 775.878 261.511C774.209 261.333 772.295 263.736 772.339 265.939C772.339 266.585 773.163 267.675 773.675 267.72C775.499 267.898 777.413 265.606 777.457 262.735Z" fill="white" fill-opacity="0.75"/>
<path d="M217.409 210.726C215.251 213.864 213.248 217.113 210.934 220.14C208.864 222.832 208.976 224.68 212.402 225.725C218.544 227.617 224.686 229.486 230.872 231.245C231.962 231.556 233.208 231.289 234.366 231.289C234.544 230.911 234.699 230.532 234.877 230.154C233.809 229.264 232.786 228.352 231.651 227.528C226.355 223.634 225.198 217.647 228.847 212.684C232.252 208.033 238.237 207.432 243.533 210.971C245.158 212.061 247.094 212.773 248.985 213.374C252.746 214.554 254.971 216.913 254.771 220.941C254.593 224.635 251.433 227.016 247.138 227.083C246.36 227.083 245.403 226.727 244.802 227.061C242.755 228.218 240.819 229.598 238.838 230.889C240.574 231.601 242.243 232.469 244.045 233.025C251.522 235.317 259.021 237.498 266.52 239.724C268.99 240.458 269.88 241.882 268.412 244.308C266.765 247.001 265.163 249.716 263.561 252.409C263.071 252.142 262.559 251.875 262.07 251.607C263.049 249.627 264.295 247.713 264.896 245.621C265.23 244.464 264.94 242.327 264.139 241.771C257.753 237.431 251.678 238.21 246.226 243.729C241.36 248.655 241.034 253.818 245.247 259.219C249.119 264.181 252.991 269.144 256.84 274.129C257.107 274.485 257.174 274.975 257.597 276.154C255.661 276.444 253.859 276.444 252.279 277.022C250.254 277.757 247.294 278.535 246.693 280.049C245.803 282.319 245.848 285.635 246.938 287.793C248.852 291.599 251.834 294.87 255.016 299.254C252.279 299.455 250.832 299.566 250.654 299.588C248.607 295.805 247.294 292.667 245.358 289.974C243.244 287.037 241.308 284.455 243.4 280.627C244.624 278.402 243.556 277.245 240.997 276.955C232.875 276.043 228.38 281.874 231.45 289.574C232.763 292.89 234.187 296.183 235.879 300.211H227.49C232.719 297.786 231.25 295.249 230.004 292.356C229.003 290.019 228.179 287.237 228.424 284.767C229.114 277.979 229.359 278.001 222.616 275.887C223.217 274.196 223.618 272.438 224.419 270.88C226.844 266.117 229.225 261.288 231.985 256.726C234.187 253.076 234.722 249.783 231.851 246.355C231.562 245.999 231.295 245.577 231.139 245.131C227.49 235.517 220.391 230.221 210.555 227.684C204.859 226.215 204.792 225.102 208.197 220.273C210.689 216.735 213.27 213.241 215.807 209.724C216.363 210.081 216.92 210.459 217.498 210.815L217.409 210.726Z" fill="white" fill-opacity="0.75"/>
<path d="M818.113 295.627C816.444 295.983 815.398 296.183 814.285 296.428C814.33 296.784 814.285 297.096 814.396 297.229C816.444 299.232 815.776 300.946 813.929 302.637C813.106 303.416 811.904 304.351 813.595 305.842C812.661 305.775 811.726 305.708 810.102 305.597C811.348 304.039 812.193 302.949 813.039 301.88C814.663 299.833 814.33 297.941 812.06 296.584C810.413 295.582 806.274 296.161 804.872 297.496C803.448 298.876 802.825 300.3 804.249 302.081C804.672 302.615 804.939 303.305 805.451 304.284C804.361 304.729 803.426 305.085 802.803 305.33C802.536 303.594 802.069 302.148 802.158 300.745C802.247 299.366 802.914 298.03 803.381 296.473C802.936 296.25 802.269 295.916 801.156 295.36C803.448 293.045 805.473 290.82 807.698 288.839C809.39 287.326 809.968 285.857 808.611 283.899C808.522 283.765 808.477 283.61 808.411 283.454C806.608 279.426 806.586 279.381 802.536 280.983C801.045 281.584 800.021 281.518 799.131 280.049C798.13 278.402 796.951 276.844 795.838 275.264C796.105 275.064 796.372 274.863 796.639 274.663C797.574 275.909 798.642 277.089 799.443 278.424C800.355 279.937 801.446 280.561 802.914 279.426C805.629 277.334 808.722 277.044 812.06 277.734C812.104 277.467 812.149 277.222 812.193 276.955C811.593 276.466 811.014 275.954 810.369 275.531C808.166 274.062 807.209 271.837 807.899 269.589C808.589 267.408 810.703 265.806 812.906 265.806C815.108 265.806 817.245 267.453 817.868 269.611C818.535 271.904 817.623 274.018 815.375 275.531C814.775 275.954 814.307 276.577 813.773 277.111C814.463 277.534 815.131 278.224 815.865 278.357C817.378 278.602 818.291 279.003 818.847 280.739C819.782 283.632 821.295 283.765 823.386 281.562C824.521 280.36 825.678 279.181 826.836 277.979C827.103 278.224 827.347 278.446 827.614 278.691C825.656 280.783 823.72 282.897 821.651 284.878C821.473 285.056 820.16 284.322 819.648 283.765C817.222 281.139 817.267 281.095 814.73 283.632C812.787 285.575 812.601 287.667 814.174 289.908C815.398 291.643 816.577 293.424 818.046 295.582L818.113 295.627Z" fill="white" fill-opacity="0.75"/>
<path d="M858.278 299.21C856.609 299.566 855.563 299.766 854.451 300.011C854.495 300.367 854.451 300.679 854.562 300.812C856.609 302.815 855.942 304.529 854.095 306.22C853.271 306.999 852.07 307.934 853.761 309.425C852.826 309.358 851.892 309.291 850.267 309.18C851.513 307.622 852.359 306.532 853.204 305.463C854.829 303.416 854.495 301.524 852.225 300.167C850.579 299.165 846.44 299.744 845.038 301.079C843.614 302.459 842.991 303.883 844.415 305.664C844.838 306.198 845.105 306.888 845.616 307.867C844.526 308.312 843.591 308.668 842.968 308.913C842.701 307.177 842.234 305.73 842.323 304.328C842.412 302.949 843.08 301.613 843.547 300.056C843.102 299.833 842.434 299.499 841.322 298.943C843.614 296.628 845.639 294.403 847.864 292.422C849.555 290.909 850.134 289.44 848.776 287.482C848.687 287.348 848.643 287.192 848.576 287.037C846.774 283.009 846.751 282.964 842.701 284.566C841.21 285.167 840.187 285.101 839.297 283.632C838.295 281.985 837.116 280.427 836.003 278.847C836.27 278.647 836.537 278.446 836.804 278.246C837.739 279.492 838.807 280.672 839.608 282.007C840.521 283.52 841.611 284.144 843.08 283.009C845.794 280.917 848.888 280.627 852.225 281.317C852.27 281.05 852.314 280.805 852.359 280.538C851.758 280.049 851.18 279.537 850.534 279.114C848.331 277.645 847.374 275.42 848.064 273.172C848.754 270.991 850.868 269.389 853.071 269.389C855.274 269.389 857.41 271.036 858.033 273.194C858.701 275.487 857.789 277.601 855.541 279.114C854.94 279.537 854.473 280.16 853.939 280.694C854.629 281.117 855.296 281.807 856.031 281.94C857.544 282.185 858.456 282.586 859.012 284.322C859.947 287.215 861.46 287.348 863.552 285.145C864.687 283.943 865.844 282.764 867.001 281.562C867.268 281.807 867.513 282.029 867.78 282.274C865.822 284.366 863.886 286.48 861.816 288.461C861.638 288.639 860.325 287.905 859.813 287.348C857.388 284.722 857.432 284.678 854.896 287.215C852.952 289.158 852.767 291.25 854.339 293.491C855.563 295.226 856.743 297.007 858.211 299.165L858.278 299.21Z" fill="white" fill-opacity="0.75"/>
<path d="M158.685 275.642C159.13 274.93 159.397 274.552 159.62 274.151C162.112 269.789 164.582 265.428 167.119 261.088C167.92 259.73 168.832 258.484 166.585 257.216C167.363 256.882 167.808 256.637 168.276 256.503C170.545 255.858 172.837 255.213 175.129 254.634C176.109 254.389 176.331 253.944 176.064 252.987C175.486 250.873 175.53 250.851 173.283 250.695C169.522 250.406 166.607 247.468 166.295 243.618C165.984 240.013 168.431 236.586 171.947 235.673C175.619 234.716 179.38 236.563 180.893 240.057C182.406 243.551 181.227 247.424 178.067 249.471C177.533 249.827 176.665 250.294 176.665 250.717C176.665 251.652 177.021 252.609 177.399 253.477C177.488 253.677 178.267 253.744 178.668 253.633C181.049 253.032 183.43 252.364 185.788 251.719C186.345 251.563 186.879 251.429 187.435 251.274C187.391 251.452 187.346 251.607 187.324 251.786C187.991 252.164 188.637 252.742 189.371 252.921C192.62 253.677 195.869 254.367 199.14 255.012C200.208 255.213 200.786 255.658 201.076 256.771C202.033 260.554 203.123 264.315 204.124 268.098C204.258 268.565 204.08 269.122 204.058 269.634C203.746 269.233 203.279 268.855 203.145 268.41C202.099 264.782 201.098 261.155 200.163 257.505C199.941 256.637 199.518 256.236 198.628 256.058C195.223 255.369 191.819 254.656 188.436 253.9C187.569 253.699 187.146 253.9 186.856 254.79C185.477 259.152 184.053 263.514 182.584 267.853C182.272 268.743 182.695 269.166 183.229 269.7C187.368 273.751 191.507 277.801 195.624 281.874C196.047 282.296 196.425 282.764 197.115 283.543C195.379 284.01 193.977 284.455 192.553 284.767C191.507 284.989 191.129 285.523 191.129 286.569C191.129 288.639 191.062 290.731 190.929 292.801C190.862 293.78 191.196 294.158 192.175 294.292C195.29 294.67 198.383 295.137 201.499 295.516C202.522 295.649 203.056 296.028 203.145 297.118C203.234 298.208 203.524 299.299 203.657 300.412C203.679 300.656 203.435 300.946 203.301 301.213C203.078 301.013 202.7 300.857 202.633 300.612C202.433 299.922 202.255 299.21 202.211 298.476C202.166 297.207 201.61 296.628 200.297 296.495C197.226 296.161 194.178 295.649 191.107 295.293C189.994 295.16 189.638 294.737 189.727 293.624C189.861 291.51 189.883 289.373 189.95 287.259C189.95 286.792 189.95 286.325 189.927 285.546C187.591 286.191 185.41 286.747 183.274 287.393C183.007 287.482 182.762 287.949 182.673 288.305C182.117 290.709 181.56 293.112 181.138 295.538C181.049 296.094 181.36 296.851 181.738 297.318C183.541 299.521 185.432 301.636 187.302 303.817C187.658 304.239 187.991 304.707 188.325 305.152C186.389 306.354 181.494 307.422 180.359 306.621C181.516 306.265 182.428 305.975 183.363 305.708C184.32 305.441 185.277 305.174 186.5 304.84C185.944 304.084 185.588 303.594 185.21 303.127C183.763 301.435 182.361 299.722 180.848 298.097C179.958 297.163 179.691 296.25 180.025 294.982C180.604 292.756 181.004 290.464 181.538 287.86L174.128 289.885C174.262 288.973 174.306 288.416 174.417 287.905C175.775 282.23 177.132 276.533 178.556 270.88C178.846 269.745 178.601 269.011 177.777 268.209C175.307 265.828 172.926 263.38 170.479 260.954C170.123 260.598 169.722 260.265 169.01 259.619C165.516 265.917 162.134 271.993 158.574 278.402C158.24 277.69 158.062 277.378 157.973 277.044C157.617 275.843 157.15 274.641 157.016 273.417C156.66 270.324 154.969 268.476 152.187 267.208C149.918 266.184 147.87 264.693 145.578 263.336C145.289 263.981 145.066 264.337 144.933 264.738C143.709 268.454 142.53 272.171 141.261 275.887C140.95 276.777 141.195 277.289 141.818 277.912C146.068 282.052 150.296 286.236 154.524 290.397C154.858 290.731 155.169 291.087 155.837 291.777C154.39 292.177 153.233 292.556 152.054 292.778C150.83 293.023 150.429 293.513 150.874 294.781C151.408 296.339 151.809 297.941 152.187 299.521C152.388 300.412 152.855 300.79 153.745 300.901C156.237 301.213 158.729 301.547 161.177 302.036C161.867 302.17 162.668 302.704 163.091 303.283C164.048 304.618 164.827 306.064 165.583 307.511C165.806 307.934 165.739 308.49 165.806 309.002C165.405 308.668 164.893 308.401 164.626 308C163.847 306.843 163.291 305.53 162.446 304.417C161.978 303.794 161.177 303.216 160.443 303.082C158.04 302.593 155.592 302.259 153.144 301.992C151.92 301.858 151.386 301.302 151.119 300.145C150.696 298.32 150.118 296.517 149.65 294.692C149.428 293.847 149.027 293.602 148.204 293.847C146.735 294.292 145.222 294.648 143.731 295.093C143.331 295.204 142.863 295.449 142.685 295.76C140.994 298.609 139.348 301.502 137.545 304.662C140.193 306.131 142.73 307.511 145.244 308.913C146.335 309.514 147.403 310.181 148.516 310.76C149.25 311.138 149.517 311.583 149.05 312.362C148.271 313.631 147.559 314.966 146.78 316.235C146.624 316.479 146.224 316.568 145.934 316.724C145.912 316.39 145.734 315.99 145.868 315.723C146.313 314.766 146.802 313.809 147.403 312.941C148.093 311.94 147.559 311.494 146.758 311.049C143.687 309.313 140.661 307.489 137.545 305.864C136.232 305.174 136.255 304.551 136.944 303.416C138.413 301.057 139.77 298.609 141.15 296.206C141.083 296.094 140.994 295.983 140.928 295.872L132.805 298.075C132.939 297.252 132.961 296.74 133.095 296.272C134.497 290.442 135.876 284.633 137.323 278.825C137.545 277.935 137.434 277.311 136.744 276.644C133.74 273.728 130.78 270.769 127.71 267.698C124.483 272.482 121.635 277.245 121.746 283.61C116.116 280.427 110.954 277.49 105.635 274.485C105.39 275.108 105.168 275.576 105.012 276.065C103.855 279.559 102.765 283.053 101.563 286.525C101.207 287.549 101.43 288.216 102.186 288.928C106.347 292.956 110.464 297.029 114.581 301.102C114.981 301.502 115.337 301.925 115.894 302.526C115.248 302.771 114.825 303.038 114.403 303.082C112.956 303.238 112.556 304.061 112.511 305.419C112.467 307.489 112.289 309.558 112.088 311.628C111.977 312.629 112.289 313.097 113.312 313.319C115.76 313.831 118.186 314.521 120.633 315.033C121.612 315.233 122.035 315.634 121.879 316.68C121.701 317.97 121.679 319.284 121.523 320.574C121.479 320.864 121.145 321.108 120.923 321.375C120.767 321.064 120.455 320.752 120.455 320.463C120.455 319.462 120.522 318.438 120.678 317.436C120.834 316.502 120.478 316.146 119.61 315.945C117.162 315.411 114.736 314.766 112.266 314.276C111.154 314.054 110.731 313.631 110.865 312.429C111.154 309.892 111.31 307.333 111.51 304.796C111.51 304.573 111.443 304.328 111.399 303.928C108.172 304.818 105.012 305.641 101.875 306.554C101.563 306.643 101.252 307.155 101.185 307.511C100.784 309.492 100.406 311.494 100.183 313.497C100.139 313.987 100.584 314.766 101.051 315.055C103.722 316.68 106.481 318.215 109.196 319.773C109.641 320.018 110.063 320.307 110.776 320.775C110.108 321.064 109.752 321.242 109.374 321.353C107.326 321.932 105.279 322.51 103.232 323.022C102.943 323.089 102.564 322.844 102.231 322.755C102.453 322.51 102.653 322.11 102.943 322.021C104.545 321.531 106.147 321.108 107.816 320.307C106.503 319.551 105.19 318.794 103.877 318.037C102.542 317.281 101.207 316.457 99.8496 315.745C98.9818 315.3 98.7147 314.766 98.8928 313.787C99.3156 311.672 99.6048 309.514 100.028 306.999L92.9736 308.935C93.1071 308.023 93.1516 307.533 93.2852 307.044C94.6648 301.324 96.0222 295.582 97.4686 289.885C97.7579 288.75 97.5131 288.016 96.6898 287.237C94.064 284.744 91.5495 282.141 88.9682 279.604C88.6344 279.27 88.2784 278.958 87.8111 278.513C86.3202 281.072 84.6957 283.431 83.5164 286.013C81.9587 289.418 79.6222 291.577 76.0396 292.823C72.1676 294.158 68.496 296.005 64.6908 297.585C64.2235 297.786 63.6227 297.652 63.0664 297.652C63.4447 297.296 63.7785 296.806 64.2235 296.606C68.8965 294.536 73.5918 292.511 78.3093 290.531C79.4887 290.041 80.312 289.351 80.9128 288.216C82.4927 285.279 84.1617 282.386 85.8529 279.537C86.5204 278.402 87.188 277.378 85.5858 276.176C86.3202 275.909 86.7875 275.731 87.277 275.598C89.5468 274.975 91.8165 274.285 94.1307 273.751C95.3546 273.461 95.6217 272.883 95.1766 271.815C95.1321 271.726 95.1099 271.637 95.1099 271.525C94.9096 269.834 94.2198 269.077 92.2615 269.033C88.6122 268.966 85.6971 265.895 85.3633 262.223C85.0295 258.573 87.2325 255.257 90.6816 254.211C94.242 253.121 97.9582 254.634 99.7161 257.861C101.452 261.088 100.628 265.138 97.7801 267.408C97.1126 267.942 95.9554 268.343 95.8219 268.966C95.6439 269.856 96.2225 270.902 96.4227 271.904C96.6008 272.794 97.0458 272.95 97.8691 272.705C100.228 272.015 102.609 271.392 104.99 270.746C105.479 270.613 105.991 270.524 106.459 270.413C106.57 270.635 106.659 270.746 106.637 270.813C105.68 272.794 106.948 273.573 108.417 274.441C112.022 276.51 115.538 278.691 119.098 280.828C119.543 281.095 120.01 281.317 120.656 281.629C120.834 280.694 121.034 279.96 121.078 279.225C121.234 276.844 122.035 274.73 123.326 272.749C124.127 271.548 124.795 270.257 125.484 268.988C126.107 267.831 127.443 266.696 125.195 265.25C126.463 264.893 127.287 264.693 128.088 264.471C130.18 263.892 132.271 263.336 134.363 262.757C134.964 262.579 135.854 262.579 135.498 261.533C135.231 260.687 135.364 259.575 133.851 259.641C132.783 259.686 131.626 259.463 130.625 259.063C127.331 257.75 125.462 254.345 125.996 250.895C126.552 247.357 129.468 244.642 132.961 244.375C136.455 244.108 139.726 246.289 140.794 249.605C141.907 253.032 140.638 256.615 137.545 258.551C136.878 258.974 136.099 259.174 136.388 260.354C136.722 261.689 137.234 262.067 138.591 261.644C141.039 260.888 143.531 260.309 146.001 259.641C146.09 259.641 146.179 259.686 146.357 259.708C146.357 259.864 146.446 260.064 146.424 260.22C146.098 261.689 146.587 262.802 147.893 263.558C150.407 265.005 152.899 266.474 155.436 267.853C156.46 268.41 157.016 269.144 157.261 270.257C157.661 271.97 158.173 273.662 158.729 275.731L158.685 275.642Z" fill="white" fill-opacity="0.75"/>
<path d="M316.855 222.81C316.521 222.543 316.277 222.343 316.01 222.142C313.273 220.006 312.538 216.379 314.252 213.374C315.854 210.57 319.392 209.324 322.463 210.503C325.534 211.661 327.358 214.977 326.669 218.137C325.934 221.497 322.93 223.856 319.503 223.433C318.213 223.277 317.612 223.678 317.145 224.724C317.033 224.969 316.9 225.191 316.722 225.547C319.414 226.794 322.04 227.995 324.844 229.286C323.754 230.11 324.043 231.067 324.176 232.001C324.532 234.516 324.888 237.031 325.289 239.523C325.422 240.324 325.111 240.636 324.377 240.792C321.083 241.504 317.812 242.238 314.497 243.151C315.031 243.351 315.609 243.485 316.121 243.752C316.388 243.885 316.521 244.241 316.722 244.486C316.388 244.62 316.032 244.909 315.743 244.842C313.962 244.375 312.182 243.818 310.424 243.284C310.246 243.24 310.024 243.24 309.512 243.173C313.606 249.471 317.567 255.547 321.706 261.867C319.281 262.045 317.122 262.223 314.875 262.379C314.942 262.735 314.964 262.957 315.053 263.18C316.099 265.939 317.189 268.677 318.213 271.459C318.48 272.193 318.88 272.46 319.659 272.46C323.887 272.438 328.093 272.438 332.321 272.46C333.077 272.46 333.433 272.193 333.634 271.481C333.856 270.613 334.123 269.767 334.457 268.944C334.568 268.654 334.991 268.276 335.236 268.298C335.926 268.365 335.703 268.899 335.57 269.322C335.213 270.502 334.88 271.703 334.435 272.838C334.301 273.172 333.789 273.595 333.433 273.595C328.449 273.639 323.486 273.639 318.502 273.595C318.168 273.595 317.656 273.172 317.523 272.816C316.277 269.7 315.053 266.563 313.873 263.402C313.606 262.668 313.228 262.423 312.427 262.512C310.135 262.735 307.843 262.868 305.551 262.98C304.839 263.024 304.461 263.269 304.216 263.959C302.903 267.831 301.546 271.681 300.166 275.509C299.943 276.132 300.099 276.51 300.544 276.955C303.259 279.626 305.929 282.341 308.622 285.034C308.867 285.279 309.067 285.523 309.378 285.857C309.089 285.946 308.889 286.057 308.711 286.057C306.552 286.057 304.394 286.102 302.235 286.057C301.946 286.057 301.657 285.679 301.368 285.479C301.657 285.279 301.924 284.9 302.235 284.9C303.593 284.833 304.95 284.878 306.619 284.878C306.196 284.411 305.974 284.121 305.729 283.877C303.571 281.718 301.434 279.537 299.231 277.4C298.697 276.866 298.564 276.399 298.831 275.687C300.166 271.97 301.457 268.254 302.77 264.537C302.903 264.159 302.992 263.758 303.126 263.291H298.987C299.877 261.244 300.722 259.285 301.612 257.193C295.426 257.149 290.597 254.79 287.282 249.716C284.968 246.177 284.211 242.283 284.968 238.099C286.503 229.464 295.359 222.61 305.907 225.547C305.596 223.834 305.484 222.187 304.972 220.674C303.86 217.425 302.547 214.264 301.234 211.082C300.834 210.147 301.034 209.702 301.902 209.235C304.705 207.655 307.465 205.986 310.246 204.339C310.558 204.161 310.869 203.938 311.07 203.805C310.313 202.403 309.601 201.09 308.956 199.754C308.844 199.51 308.933 198.931 309.111 198.842C309.601 198.575 309.89 198.909 310.068 199.421C311.003 202.158 312.961 203.961 315.476 205.207C318.902 206.92 322.619 207.321 326.379 207.388C326.936 207.388 327.492 207.321 328.026 207.41C328.271 207.454 328.471 207.766 328.694 207.966C328.471 208.167 328.248 208.523 328.026 208.523C322.663 208.656 317.434 208.233 312.872 204.984C312.405 204.65 312.071 204.628 311.581 204.917C308.733 206.631 305.863 208.322 302.992 209.992C302.436 210.303 302.347 210.637 302.569 211.238C303.793 214.264 304.95 217.313 306.174 220.318C306.308 220.651 306.664 221.007 306.997 221.163C309.579 222.365 312.182 223.522 314.764 224.724C315.364 224.991 315.72 224.924 316.01 224.323C316.254 223.834 316.544 223.389 316.855 222.877V222.81ZM306.908 241.148C306.73 239.612 306.619 238.143 306.352 236.719C306.263 236.274 305.84 235.74 305.44 235.562C302.903 234.449 299.81 235.184 297.918 237.298C296.005 239.412 295.626 242.461 296.962 244.953C298.297 247.446 301.101 248.937 303.838 248.492C304.283 248.425 304.817 248.002 305.039 247.579C305.662 246.4 306.152 245.154 306.686 243.93C307.287 242.594 307.198 242.394 305.729 242.372C305.373 242.372 304.928 242.839 304.661 243.195C303.904 244.13 302.725 244.553 301.635 244.174C300.455 243.774 299.721 242.728 299.765 241.504C299.81 240.369 300.567 239.39 301.635 239.056C302.814 238.7 304.149 239.056 304.683 240.146C305.173 241.126 305.863 241.259 306.953 241.17L306.908 241.148ZM322.886 231.2C318.813 234.917 314.919 238.455 310.803 242.194C311.492 242.238 311.848 242.327 312.205 242.261C315.921 241.437 319.637 240.591 323.353 239.768C323.909 239.657 324.11 239.39 324.021 238.833C323.665 236.408 323.308 233.96 322.908 231.2H322.886ZM295.782 237.565C293.023 237.565 290.508 237.52 287.994 237.565C286.659 237.587 286.392 238.077 286.726 239.59C289.685 238.922 292.645 238.255 295.782 237.543V237.565ZM299.187 234.16L299.387 233.915C299.098 233.693 298.809 233.47 298.519 233.27C296.85 232.135 295.159 231.022 293.49 229.887C292.333 229.108 291.933 229.219 291.154 230.599C293.846 231.801 296.517 232.98 299.187 234.182V234.16ZM297.028 235.54C297.028 235.54 297.051 235.339 297.073 235.25C294.714 234.583 292.355 233.937 289.997 233.27C288.684 232.914 288.417 233.092 288.127 234.65C291.109 234.939 294.069 235.25 297.028 235.54ZM287.148 236.942C290.175 236.786 293.201 236.652 296.205 236.497C296.205 236.408 296.205 236.319 296.205 236.23C295.983 236.185 295.76 236.118 295.515 236.096C293.223 235.874 290.953 235.651 288.662 235.428C287.393 235.317 287.282 235.428 287.126 236.919L287.148 236.942ZM294.981 238.789C294.981 238.789 294.959 238.611 294.937 238.522C294.714 238.544 294.469 238.544 294.247 238.611C291.977 239.123 289.707 239.635 287.46 240.169C286.303 240.436 286.191 240.68 286.681 241.971C289.44 240.903 292.2 239.857 294.959 238.789H294.981ZM298.03 234.739C298.03 234.739 298.097 234.583 298.141 234.516C297.985 234.427 297.807 234.293 297.629 234.227C295.515 233.27 293.401 232.313 291.265 231.378C290.264 230.933 289.885 231.156 289.552 232.402C292.378 233.181 295.181 233.96 298.008 234.739H298.03ZM301.679 233.381C301.679 233.381 301.835 233.203 301.924 233.114C300.522 231.356 299.12 229.575 297.718 227.817C296.917 226.816 296.65 226.794 295.537 227.728C297.585 229.62 299.632 231.489 301.679 233.359V233.381ZM297.874 226.883C299.632 229.086 301.323 231.222 303.037 233.337C303.148 233.27 303.237 233.181 303.348 233.114C302.302 231.267 301.256 229.442 300.233 227.595C299.565 226.393 299.409 226.349 297.896 226.883H297.874ZM293.268 228.841C295.738 230.51 298.097 232.09 300.478 233.693C300.544 233.626 300.589 233.537 300.656 233.47C300.478 233.27 300.299 233.069 300.121 232.914C298.586 231.489 297.051 230.087 295.515 228.685C294.581 227.817 294.469 227.817 293.268 228.863V228.841ZM286.993 244.286C289.574 242.839 292.066 241.459 294.558 240.057C294.514 239.968 294.469 239.857 294.425 239.768C292.133 240.658 289.863 241.571 287.527 242.394C286.503 242.75 286.503 243.307 286.993 244.286ZM294.336 241.304C294.336 241.304 294.269 241.192 294.225 241.126C293.958 241.259 293.691 241.37 293.446 241.504C291.643 242.483 289.863 243.485 288.061 244.464C286.926 245.087 286.904 245.265 287.794 246.467C289.974 244.731 292.155 243.017 294.336 241.281V241.304ZM300.433 226.504C301.79 228.908 303.059 231.178 304.349 233.426C304.438 233.381 304.527 233.337 304.639 233.292C304.572 233.047 304.527 232.78 304.438 232.558C303.838 230.889 303.17 229.219 302.636 227.528C302.302 226.438 301.612 226.304 300.455 226.504H300.433ZM294.959 244.709C294.959 244.709 294.781 244.642 294.692 244.597C293.513 246.467 292.311 248.314 291.132 250.183C290.531 251.118 290.642 251.385 291.844 251.875C292.889 249.493 293.913 247.09 294.959 244.709ZM305.596 233.604C305.596 233.604 305.818 233.559 305.929 233.537C305.885 233.247 305.885 232.958 305.818 232.691C305.529 231.178 305.24 229.665 304.928 228.151C304.661 226.794 304.527 226.705 303.059 226.794C303.904 229.086 304.75 231.356 305.596 233.626V233.604ZM293.935 242.861C293.935 242.861 293.824 242.728 293.757 242.683C292.111 243.974 290.464 245.287 288.817 246.578C287.838 247.357 287.838 247.579 288.862 248.514C290.553 246.622 292.244 244.731 293.935 242.861ZM294.514 243.574C294.514 243.574 294.425 243.507 294.358 243.485C292.845 245.154 291.332 246.845 289.819 248.514C289.062 249.36 289.107 249.605 290.241 250.317C291.666 248.069 293.09 245.821 294.514 243.551V243.574ZM297.073 247.824C297.073 247.824 296.873 247.824 296.784 247.802C296.717 248.158 296.65 248.514 296.606 248.892C296.472 250.472 296.361 252.03 296.227 253.61C296.138 254.634 296.316 254.812 297.562 254.745C297.407 252.431 297.251 250.139 297.073 247.824ZM295.471 254.167C295.671 251.763 295.871 249.427 296.072 247.09C295.337 249.048 294.803 251.007 294.291 253.01C294.069 253.9 294.67 254.033 295.448 254.167H295.471ZM295.404 246.022C295.404 246.022 295.27 245.977 295.226 245.955C294.38 247.846 293.579 249.76 292.689 251.652C292.289 252.52 292.645 252.876 293.513 253.165C294.158 250.74 294.781 248.381 295.404 246.022ZM298.141 248.714C298.141 248.714 297.941 248.737 297.829 248.759C297.963 250.695 298.052 252.631 298.23 254.567C298.297 255.346 298.853 255.324 299.521 255.101C299.053 252.943 298.586 250.829 298.119 248.714H298.141ZM301.612 255.213C300.834 253.21 300.099 251.34 299.365 249.449C299.276 249.471 299.187 249.516 299.076 249.538C299.454 251.274 299.832 252.987 300.21 254.723C300.366 255.435 300.878 255.368 301.612 255.213ZM300.656 249.916C300.656 249.916 300.455 250.005 300.366 250.05L301.968 254.144C302.08 254.1 302.191 254.055 302.324 254.011C302.792 252.253 301.078 251.34 300.678 249.938L300.656 249.916ZM301.724 250.383C302.08 251.007 302.458 251.63 302.859 252.32C303.281 251.452 302.948 250.829 301.724 250.383Z" fill="white" fill-opacity="0.75"/>
<path d="M1198.41 181.194C1200.68 179.837 1202.81 178.59 1204.9 177.255C1205.19 177.055 1205.44 176.543 1205.44 176.165C1205.48 173.071 1205.44 169.978 1205.44 166.884C1205.44 166.684 1205.42 166.462 1205.33 166.306C1205.04 165.772 1205.28 165.549 1205.75 165.304C1207.84 164.192 1209.93 163.057 1212.02 161.899C1213.09 161.321 1214.14 160.698 1215.23 160.119C1215.76 159.83 1215.94 159.474 1215.7 158.895C1215.38 158.116 1215.34 157.048 1214.78 156.603C1214.29 156.225 1213.27 156.558 1212.47 156.536C1209.6 156.469 1207.33 155.201 1205.88 152.775C1204.35 150.216 1205.13 146.232 1207.33 144.096C1209.67 141.848 1213.2 141.425 1215.99 143.05C1218.74 144.674 1220.04 147.879 1219.26 151.039C1218.86 152.619 1218.14 153.955 1216.85 155.001C1216.65 155.179 1216.5 155.646 1216.56 155.913C1216.79 156.848 1217.12 157.76 1217.45 158.873C1218.19 158.495 1218.88 158.183 1219.52 157.805C1221.1 156.914 1222.64 155.98 1224.24 155.134C1226.31 154.044 1226.31 154.088 1228 155.668C1230.58 158.049 1233.16 160.408 1235.79 162.745C1236.55 163.435 1236.81 164.058 1236.46 165.082C1235.19 168.687 1234.05 172.337 1232.81 175.942C1232.67 176.365 1232.21 176.899 1231.85 176.966C1230.94 177.099 1230.69 176.721 1230.98 175.831C1231.65 173.783 1232.36 171.758 1233.05 169.733C1233.61 168.131 1234.19 166.528 1234.72 164.904C1234.81 164.659 1234.72 164.192 1234.54 164.036C1232.25 161.944 1229.94 159.874 1227.62 157.805C1227.38 157.582 1227.09 157.404 1226.69 157.115C1226.69 158.45 1226.64 159.63 1226.69 160.809C1226.91 165.238 1227.27 169.644 1227.38 174.073C1227.45 176.788 1228.02 179.236 1229.34 181.662C1232.14 186.869 1234.77 192.166 1237.46 197.418C1237.64 197.774 1237.77 198.13 1238.06 198.775C1236.84 198.775 1235.81 198.887 1234.81 198.753C1233.34 198.575 1232.59 199.154 1231.96 200.467C1230.92 202.714 1229.67 204.873 1228.45 207.032C1228.09 207.677 1228.14 208.078 1228.67 208.589C1230.65 210.503 1232.59 212.462 1234.52 214.42C1234.83 214.732 1235.1 215.043 1235.52 215.511C1235.1 215.6 1234.86 215.666 1234.61 215.689C1232.94 215.689 1231.25 215.689 1229.58 215.689C1229 215.689 1228.6 215.577 1228.6 214.865C1228.6 214.175 1229.07 214.153 1229.56 214.153C1230.25 214.153 1230.94 214.153 1231.63 214.153L1231.74 213.886C1231.01 213.129 1230.27 212.373 1229.54 211.638C1228.67 210.748 1227.8 209.858 1226.87 209.035C1226.22 208.456 1226.15 207.966 1226.58 207.21C1227.91 204.851 1229.16 202.425 1230.45 200.021C1230.63 199.71 1230.78 199.376 1231.01 198.887C1230.58 198.842 1230.27 198.775 1229.96 198.775C1227.18 198.775 1224.37 198.775 1221.59 198.775C1220.9 198.775 1220.48 199.02 1220.15 199.621C1218.74 202.069 1217.34 204.517 1215.9 206.943C1215.52 207.566 1215.56 207.989 1216.01 208.545C1217.97 211.015 1219.9 213.508 1221.84 216.022C1222.08 216.334 1222.28 216.668 1222.62 217.135C1222.17 217.202 1221.88 217.269 1221.61 217.269C1219.7 217.269 1217.79 217.269 1215.87 217.269C1215.32 217.269 1214.87 217.224 1214.87 216.49C1214.87 215.733 1215.34 215.711 1215.87 215.711C1217.01 215.711 1218.14 215.711 1219.55 215.711C1219.19 215.177 1218.99 214.865 1218.77 214.554C1217.25 212.595 1215.74 210.615 1214.18 208.678C1213.72 208.122 1213.69 207.677 1214.05 207.076C1215.45 204.717 1216.83 202.314 1218.21 199.932C1218.37 199.643 1218.52 199.354 1218.79 198.82H1209.15C1209.15 198.82 1209.04 198.597 1209 198.486C1214.23 191.943 1219.46 185.423 1224.75 178.768C1218.94 175.052 1213.2 171.358 1207.22 167.53C1207.22 168.487 1207.22 169.221 1207.22 169.978C1207.22 172.292 1207.22 174.607 1207.22 176.921C1207.22 177.745 1207 178.19 1206.11 178.613C1203.68 179.77 1201.41 181.194 1199.1 182.574C1198.92 182.685 1198.9 183.242 1198.98 183.531C1200.48 188.405 1202.01 193.278 1203.55 198.152C1205.59 204.695 1207.64 211.216 1209.71 217.758C1209.73 217.847 1209.82 217.959 1209.8 218.048C1209.71 218.337 1209.58 218.626 1209.47 218.938C1209.24 218.76 1208.89 218.626 1208.8 218.381C1208.46 217.536 1208.24 216.668 1207.95 215.8C1204.21 203.849 1200.45 191.899 1196.71 179.97C1194.98 174.451 1193.22 168.932 1191.46 163.413C1190.37 159.963 1189.26 156.514 1188.17 153.087C1188.04 152.664 1187.79 152.241 1188.46 152.041C1189.1 151.84 1189.28 152.263 1189.42 152.753C1191 157.782 1192.55 162.812 1194.16 167.841C1195 170.512 1195.96 173.16 1196.8 175.831C1197.27 177.322 1197.58 178.857 1197.96 180.371C1198.03 180.616 1198.14 180.86 1198.32 181.283L1198.41 181.194Z" fill="white" fill-opacity="0.75"/>
<path d="M676.165 261.756H670.401C674.963 257.238 679.436 252.787 683.975 248.292C679.992 242.906 676.254 237.832 672.426 232.647C672.137 233.069 671.914 233.381 671.714 233.715C669.912 236.675 668.132 239.635 666.307 242.572C666.062 242.973 665.662 243.418 665.239 243.551C661.678 244.775 658.118 245.955 654.535 247.09C654.268 247.179 653.734 247.09 653.623 246.89C653.222 246.244 653.845 246.111 654.268 245.955C657.094 245.02 659.92 243.996 662.791 243.173C664.438 242.706 665.506 241.838 666.329 240.369C667.842 237.676 669.533 235.095 671.136 232.446C671.38 232.024 671.536 231.556 671.781 231C673.361 231 675.03 231 676.699 231C678.412 231 680.126 231 681.839 231C682.44 231 682.729 230.8 682.685 230.176C682.685 229.976 682.662 229.776 682.685 229.576C682.84 228.685 682.484 228.307 681.572 228.084C677.722 227.217 675.586 223.433 676.743 219.739C677.9 216.067 681.839 214.198 685.488 215.644C686.089 215.889 686.49 215.844 687.002 215.399C688.203 214.42 689.583 214.287 690.963 215.021C692.298 215.733 692.943 216.913 692.832 218.426C692.72 219.984 691.919 221.097 690.428 221.586C689.828 221.786 689.605 222.12 689.494 222.699C688.96 225.547 687.335 227.417 684.465 228.084C683.708 228.262 683.753 228.752 683.775 229.286C683.797 231.156 683.552 230.955 685.422 230.978C687.135 230.978 688.848 230.978 690.562 230.978C691.986 230.978 693.344 230.978 694.768 231.69C697.505 233.003 700.442 233.915 703.313 234.983C704.002 235.25 704.714 235.451 705.382 235.762C706.094 236.096 706.45 235.851 706.806 235.228C709.454 230.599 712.147 225.993 714.839 221.386C715.04 221.03 715.151 220.362 715.841 220.807C716.486 221.208 716.019 221.631 715.796 222.009C712.992 226.86 710.166 231.712 707.385 236.586C706.94 237.365 706.517 237.52 705.716 237.209C701.888 235.74 698.039 234.316 694.234 232.825C693.433 232.513 693.054 232.691 692.654 233.403C689.983 237.943 687.291 242.483 684.576 247.001C684.131 247.735 684.153 248.18 684.754 248.826C688.47 252.698 692.142 256.637 695.814 260.554C696.103 260.865 696.348 261.199 696.77 261.711C696.036 261.756 695.546 261.778 695.057 261.8C693.099 261.8 691.163 261.822 689.205 261.8C688.581 261.8 688.225 261.978 687.936 262.534C686.89 264.56 685.822 266.585 684.71 268.565C684.376 269.189 684.398 269.611 684.821 270.19C688.025 274.463 691.185 278.758 694.367 283.053C694.567 283.32 694.745 283.587 695.035 284.01C694.59 284.077 694.323 284.121 694.033 284.144C692.565 284.144 691.074 284.166 689.605 284.121C689.338 284.121 689.093 283.765 688.849 283.565C689.093 283.365 689.338 283.009 689.583 283.009C690.54 282.942 691.519 282.986 692.72 282.986C692.387 282.475 692.209 282.163 692.008 281.896C689.249 278.179 686.534 274.418 683.708 270.746C682.974 269.812 683.018 269.122 683.575 268.165C684.576 266.451 685.466 264.671 686.379 262.935C686.534 262.646 686.646 262.334 686.846 261.911C686.401 261.867 686.089 261.822 685.778 261.822C683.33 261.822 680.882 261.822 678.412 261.822C677.767 261.822 677.366 261.978 677.055 262.579C675.275 266.051 673.45 269.478 671.714 272.972C671.492 273.395 671.514 274.085 671.714 274.552C673.005 277.69 674.362 280.805 675.675 283.921C675.809 284.255 675.92 284.589 676.12 285.101C675.341 285.212 674.696 285.323 674.051 285.412C672.716 285.59 671.403 285.79 670.045 285.924C669.8 285.946 669.511 285.635 669.222 285.457C669.444 285.234 669.622 284.834 669.867 284.789C671.314 284.544 672.782 284.388 674.384 284.166C674.206 283.654 674.117 283.276 673.962 282.92C672.805 280.16 671.647 277.423 670.424 274.685C670.09 273.929 670.112 273.328 670.49 272.616C672.181 269.456 673.828 266.251 675.497 263.069C675.675 262.757 675.809 262.401 676.076 261.845L676.165 261.756Z" fill="white" fill-opacity="0.75"/>
<path d="M572.023 258.484C573.047 258.44 574.048 258.306 575.317 258.173C574.872 257.416 574.671 256.993 574.404 256.615C571.534 252.453 568.708 248.292 565.77 244.197C564.969 243.062 564.791 242.127 565.392 240.814C567.328 236.563 569.22 232.291 570.955 227.973C571.69 226.148 572.802 224.969 574.493 224.056C577.609 222.387 580.613 220.54 583.795 218.693C581.303 214.442 578.966 210.303 576.407 206.32C576.118 206.475 575.828 206.631 575.539 206.809C577.586 210.681 580.012 214.353 582.193 218.315C579.166 220.051 576.274 221.72 573.381 223.322C573.069 223.5 572.669 223.5 572.29 223.5C570.043 223.5 567.773 223.5 565.526 223.5C564.791 223.5 563.857 223.656 563.968 222.476C564.057 221.43 563.345 220.14 565.281 219.761C569.153 219.005 571.578 215.622 571.289 211.772C571 208.055 567.951 205.073 564.235 204.851C560.452 204.628 557.136 207.143 556.358 210.837C555.557 214.687 557.559 218.359 561.431 219.539C563.345 220.117 562.811 221.43 562.766 222.61C562.722 224.012 561.498 223.478 560.764 223.5C557.671 223.567 554.555 223.522 551.952 223.522C551.217 224.635 550.839 225.503 550.216 226.126C547.746 228.663 545.187 231.111 542.761 233.693C542.339 234.138 542.027 235.05 542.183 235.606C543.117 239.078 544.186 242.505 545.254 245.955C545.387 246.378 545.721 246.756 545.966 247.157C546.122 247.112 546.3 247.045 546.455 247.001C546.411 246.533 546.455 246.044 546.322 245.599C545.855 243.952 545.32 242.305 544.853 240.658C544.319 238.811 543.095 236.764 543.496 235.139C543.919 233.448 545.966 232.179 547.301 230.733C548.814 229.108 550.372 227.484 551.952 225.814C552.374 226.282 552.552 226.438 552.664 226.616C555.401 231.289 558.16 235.963 560.83 240.681C561.12 241.192 561.031 242.149 560.741 242.728C558.316 247.824 555.801 252.854 553.331 257.928C553.087 258.44 552.909 258.974 552.619 259.686H556.647C556.647 260.086 556.736 260.376 556.647 260.598C554.956 264.938 555.757 268.966 558.116 272.816C558.383 273.261 558.561 273.795 558.761 274.285C558.961 274.797 559.139 275.331 559.428 276.087C558.383 276.087 557.626 276.043 556.892 276.087C556.202 276.132 555.534 276.288 554.867 276.377C554.911 276.577 554.933 276.8 554.978 277H561.186C560.875 276.243 560.697 275.687 560.452 275.175C559.339 272.683 558.205 270.19 557.136 267.675C556.892 267.119 556.758 266.429 556.847 265.828C557.114 264.026 557.47 262.245 557.893 260.465C557.982 260.086 558.405 259.53 558.716 259.486C561.142 259.241 563.59 259.107 565.926 258.951C566.082 259.308 566.149 259.397 566.171 259.508C566.193 259.886 566.26 260.264 566.215 260.621C565.748 264.626 566.705 268.232 568.975 271.57C569.865 272.883 570.466 274.374 571.222 275.843C569.665 276.399 568.018 275.598 566.794 276.488C566.816 276.666 566.839 276.844 566.861 277.022H573.114C572.847 276.421 572.646 275.932 572.402 275.487C571.2 273.217 570.043 270.902 568.708 268.699C567.706 267.03 567.328 265.316 567.35 263.358C567.462 258.751 567.395 258.773 572.112 258.529L572.023 258.484Z" fill="white" fill-opacity="0.75"/>
<path d="M638.38 252.609C637.979 251.118 637.712 249.605 637.334 248.114C637.067 247.023 636.867 245.888 636.422 244.887C635.176 242.016 632.772 241.37 630.124 243.039C626.364 245.421 622.581 247.78 618.753 250.05C618.286 250.339 617.396 250.361 616.884 250.116C613.524 248.425 610.231 246.645 606.915 244.864C605.602 244.152 605.157 240.814 606.337 239.946C607.983 238.744 609.741 237.654 611.544 236.697C613.101 235.874 613.858 234.961 613.613 233.292C612.055 234.917 610.609 234.894 608.495 234.049C606.27 233.158 605.892 231.601 605.469 229.731C605.268 229.776 605.046 229.843 604.846 229.887C604.979 231.133 605.09 232.357 605.246 233.804C604.556 234.049 603.644 234.16 602.976 234.627C601.819 235.428 600.551 236.274 599.794 237.431C598.659 239.167 599.55 240.436 601.619 240.458C602.153 240.458 602.687 240.458 603.221 240.391C604.245 240.235 604.645 240.547 604.645 241.682C604.623 245.755 604.445 249.849 604.823 253.9C605.224 258.173 604.178 261.555 600.595 264.025C599.416 264.827 599.661 265.583 600.64 266.429C601.686 267.341 602.732 268.298 603.577 269.389C604.156 270.123 604.423 271.125 604.734 272.037C604.935 272.616 604.957 273.239 605.046 273.862C605.202 273.862 605.38 273.862 605.535 273.862C605.713 273.306 605.869 272.749 606.047 272.171C606.826 272.66 607.494 273.105 608.161 273.528C608.295 273.372 608.428 273.194 608.562 273.039C608.072 272.46 607.627 271.815 607.049 271.347C606.092 270.546 605.78 269.545 605.802 268.365C605.847 266.117 605.758 263.847 605.914 261.6C605.958 260.865 606.403 259.931 606.982 259.486C610.186 257.038 613.48 254.745 616.706 252.342C617.507 251.741 618.153 251.741 619.02 252.208C621.98 253.833 624.984 255.368 627.966 256.971C628.366 257.193 628.722 257.483 629.301 257.883C627.721 259.864 626.275 261.778 624.717 263.603C623.983 264.471 623.916 265.205 624.45 266.206C625.629 268.365 626.675 270.613 627.81 272.794C628.033 273.217 628.366 273.55 628.656 273.929C628.811 273.862 628.967 273.773 629.123 273.706C628.99 273.194 628.901 272.66 628.678 272.193C627.721 270.212 626.675 268.276 625.741 266.295C625.496 265.806 625.229 264.982 625.451 264.671C626.742 262.824 628.188 261.066 629.59 259.285C629.724 259.352 629.88 259.397 630.013 259.463C630.013 261.043 630.013 262.646 630.013 264.226C630.013 265.784 629.969 267.341 630.013 268.899C630.08 270.39 629.657 271.97 630.592 273.372C630.948 272.705 631.081 272.059 631.081 271.414C631.103 262.668 631.126 253.922 631.148 245.176C631.148 243.418 632.35 242.706 633.885 243.596C634.441 243.93 635.131 244.531 635.242 245.109C635.687 247.335 636.133 249.582 636.155 251.83C636.155 253.432 636.511 254.679 637.579 255.903C638.714 254.857 638.625 253.811 638.313 252.653L638.38 252.609ZM604.645 268.276C604.467 268.432 604.289 268.588 604.089 268.766C603.243 267.764 602.376 266.763 601.597 265.717C601.419 265.472 601.419 264.871 601.597 264.626C602.376 263.58 603.266 262.579 604.111 261.577C604.289 261.711 604.467 261.845 604.645 262V268.298V268.276Z" fill="white" fill-opacity="0.75"/>
<path d="M545.588 258.796C544.876 259.552 544.275 259.708 543.385 259.063C542.072 258.128 540.648 257.371 539.335 256.414C538.756 255.992 538.378 255.279 537.911 254.701C537.977 254.523 538.066 254.345 538.133 254.189H531.435C531.546 253.41 531.613 252.943 531.658 252.475C531.836 250.695 532.259 249.404 534.417 248.826C536.909 248.136 538.089 244.953 537.288 242.439C536.486 239.879 533.861 238.322 531.213 238.811C528.587 239.278 526.673 241.749 526.873 244.375C527.052 247.001 528.676 248.492 531.057 249.449C530.834 250.717 530.745 251.964 530.367 253.121C530.211 253.61 529.499 254.167 528.987 254.234C527.43 254.456 525.583 253.722 524.626 255.725C524.559 255.836 524.359 255.88 524.203 255.947C522.512 256.86 520.754 257.705 519.13 258.729C518.128 259.352 517.527 259.107 516.793 258.351C515.436 256.904 514.012 255.524 512.565 254.144C512.32 253.9 511.853 253.877 511.497 253.744C511.608 254.144 511.586 254.679 511.831 254.923C513.5 256.659 515.191 258.395 516.971 260.02C517.327 260.331 518.173 260.42 518.618 260.242C519.997 259.641 521.288 258.862 522.601 258.15C526.072 256.259 526.05 256.281 527.875 259.73C528.364 260.665 528.231 261.266 527.497 261.956C525.783 263.58 524.136 265.272 522.49 266.963C522.178 267.275 521.956 267.653 521.377 268.387C522.801 268.387 523.736 268.387 524.67 268.387C526.065 268.387 526.762 269.107 526.762 270.546C526.762 272.215 526.762 273.884 526.762 275.531C526.762 276.043 526.962 276.577 527.051 277.089H527.919C527.919 275.442 527.919 273.84 527.964 272.237C528.075 267.787 527.074 268.454 532.058 268.365C533.126 268.365 533.46 268.788 533.416 269.812C533.371 271.904 533.371 273.996 533.416 276.087C533.416 276.555 533.683 277 533.838 277.445C534.016 277.423 534.195 277.378 534.373 277.356C534.417 276.8 534.506 276.243 534.528 275.687C534.528 273.907 534.617 272.148 534.528 270.368C534.439 268.877 534.862 268.143 536.464 268.343C536.998 268.41 537.555 268.254 538.534 268.143C536.219 265.806 534.261 263.825 532.236 261.8C533.705 260.131 534.973 258.595 536.353 257.193C536.642 256.904 537.532 256.837 537.911 257.038C539.824 258.128 541.671 259.308 543.496 260.532C544.319 261.088 544.898 260.999 545.588 260.309C547.412 258.417 549.326 256.592 551.129 254.701C551.418 254.412 551.44 253.833 551.574 253.388C551.173 253.544 550.684 253.61 550.394 253.9C548.725 255.48 547.079 257.104 545.476 258.773L545.588 258.796Z" fill="white" fill-opacity="0.75"/>
<path d="M593.341 250.517C591.761 249.805 589.67 250.294 587.8 250.161C587.378 250.139 586.777 249.783 586.621 249.404C585.976 247.891 586.376 246.934 587.823 246.111C590.026 244.864 591.049 242.35 590.359 239.902C589.692 237.587 587.4 235.963 584.997 236.096C582.46 236.23 580.39 238.054 579.968 240.525C579.545 242.995 580.88 245.398 583.239 246.378C585.375 247.268 585.553 247.557 585.152 250.072C583.773 250.139 582.371 250.228 580.591 250.339C582.994 253.499 580.368 254.879 578.966 256.86C578.254 256.192 577.698 255.702 577.164 255.168C575.784 253.811 574.449 252.431 573.047 251.096C572.802 250.873 572.335 250.895 571.957 250.806C571.979 251.096 571.89 251.474 572.046 251.652C574.293 254.011 576.563 256.348 578.989 258.862C580.257 257.216 581.28 255.903 582.415 254.456C583.684 256.236 584.663 257.727 583.661 259.864C582.86 261.578 582.438 263.469 581.792 265.383C582.527 265.517 582.994 265.583 583.684 265.717C583.684 268.343 583.684 270.858 583.684 273.372C583.684 273.773 583.973 274.174 584.151 274.574C584.351 274.174 584.73 273.773 584.752 273.35C584.819 270.991 584.752 268.632 584.796 266.273C584.841 264.56 586.354 265.205 587.244 264.982C587.422 264.938 588.067 265.806 588.09 266.251C588.179 268.832 588.112 271.392 588.156 273.973C588.156 274.507 588.379 275.064 588.49 275.598C588.668 275.598 588.869 275.576 589.047 275.553C589.136 275.019 589.269 274.485 589.291 273.951C589.314 271.592 589.291 269.233 589.291 266.874C589.291 264.204 589.158 264.649 591.583 264.204C591.917 264.137 592.251 263.981 592.896 263.758C590.782 261.622 588.869 259.664 586.844 257.616C588.869 255.702 590.76 253.922 592.763 252.03C594.81 253.877 597.347 255.569 596.635 259.152C596.546 259.552 596.635 260.02 596.768 260.398C596.813 260.509 597.591 260.554 597.681 260.398C598.281 259.486 597.681 255.257 596.924 254.434C595.722 253.099 594.788 251.185 593.297 250.517H593.341Z" fill="white" fill-opacity="0.75"/>
<path d="M837.027 268.743C839.977 268.743 842.368 266.352 842.368 263.402C842.368 260.453 839.977 258.061 837.027 258.061C834.078 258.061 831.687 260.453 831.687 263.402C831.687 266.352 834.078 268.743 837.027 268.743Z" fill="white" fill-opacity="0.75"/>
<path d="M653.467 231.779C656.417 231.779 658.808 229.387 658.808 226.438C658.808 223.488 656.417 221.096 653.467 221.096C650.518 221.096 648.126 223.488 648.126 226.438C648.126 229.387 650.518 231.779 653.467 231.779Z" fill="white" fill-opacity="0.75"/>
</g>
<defs>
<linearGradient id="paint0_linear_291_1210" x1="244.823" y1="348.061" x2="305.485" y2="765.299" gradientUnits="userSpaceOnUse">
<stop stop-color="#403B84"/>
<stop offset="0.25" stop-color="#6C64D0" stop-opacity="0"/>
</linearGradient>
<linearGradient id="paint1_linear_291_1210" x1="1187.76" y1="243.124" x2="1187.76" y2="-164.656" gradientUnits="userSpaceOnUse">
<stop stop-color="#403B84"/>
<stop offset="0.25" stop-color="#6C64D0" stop-opacity="0"/>
</linearGradient>
<clipPath id="clip0_291_1210">
<rect width="1344" height="199" fill="white" transform="translate(63 124)"/>
</clipPath>
</defs>
</svg>
