<svg width="1441" height="691" viewBox="0 0 1441 691" fill="none" xmlns="http://www.w3.org/2000/svg">
<path d="M619 213.576C390.445 101.296 111.771 234.141 0 310.389V624.329C475.33 744.47 667.622 697.362 897.179 522.263C1080.83 382.183 1336.25 497.634 1441 572.869V0C1211.44 15.5194 1184.38 174.088 1118.72 231.105C1053.06 288.122 904.694 353.925 619 213.576Z" fill="#E85860"/>
<mask id="mask0_291_1344" style="mask-type:alpha" maskUnits="userSpaceOnUse" x="1" y="0" width="1440" height="678">
<path d="M619 213.576C397.301 101.32 151.643 234.09 43.2245 310.322C21.5 372.492 1 432.065 1 624.194C368.5 713.606 690.82 697.212 913.492 522.15C1091.63 382.1 1339.39 497.527 1441 572.746V0C1218.33 15.5161 1185.19 171.754 1121.5 228.759C1057.81 285.764 896.124 353.895 619 213.576Z" fill="#548EF7"/>
</mask>
<g mask="url(#mask0_291_1344)">
<path d="M833.609 490.703C350.975 395.924 -26.9221 580.117 -155.542 684.061C-317.491 810.036 -363.95 949.157 -292.319 1141.42C-235.014 1295.23 530.305 1028.58 905.802 876.03C1082.84 787.079 1316.24 585.482 833.609 490.703Z" fill="url(#paint0_linear_291_1344)"/>
<path d="M699.546 243.453C1062.58 431.049 1439.04 330.616 1581.89 256.949C1760.01 168.887 1847.86 45.0608 1857.56 -153.332C1865.33 -312.046 1140.88 -210.465 777.685 -139.836C600.375 -90.2377 336.512 55.8575 699.546 243.453Z" fill="url(#paint1_linear_291_1344)"/>
</g>
<defs>
<linearGradient id="paint0_linear_291_1344" x1="244.823" y1="502.108" x2="368.3" y2="1090.84" gradientUnits="userSpaceOnUse">
<stop stop-color="#D3474F"/>
<stop offset="0.25" stop-color="#E85860" stop-opacity="0"/>
</linearGradient>
<linearGradient id="paint1_linear_291_1344" x1="1187.76" y1="350.728" x2="1187.76" y2="-237.531" gradientUnits="userSpaceOnUse">
<stop stop-color="#D3474F"/>
<stop offset="0.25" stop-color="#E85860" stop-opacity="0"/>
</linearGradient>
</defs>
</svg>
