<svg width="1441" height="534" viewBox="0 0 1441 534" fill="none" xmlns="http://www.w3.org/2000/svg">
<rect x="1" width="1440" height="301.38" fill="#6C64D0"/>
<path d="M619 195.669C390.445 92.8031 111.771 214.51 0 284.365V450.99C300 575.5 567.321 509.5 865.5 450.99C1091.57 406.63 1330 450.99 1441 534V0C1211.44 14.2182 1184.38 159.492 1118.72 211.728C1053.06 263.965 904.694 324.251 619 195.669Z" fill="#6C64D0"/>
<mask id="mask0_291_1351" style="mask-type:alpha" maskUnits="userSpaceOnUse" x="0" y="0" width="1441" height="456">
<path d="M619 167.056C390.445 79.2322 111.771 183.141 0 242.781V385.04C273 484.086 615.461 425.128 897.179 385.04C1124.42 352.704 1330 385.04 1441 455.911V0C1211.44 12.1391 1184.38 136.169 1118.72 180.766C1053.06 225.364 904.694 276.835 619 167.056Z" fill="#6C64D0"/>
</mask>
<g mask="url(#mask0_291_1351)">
<path d="M1150.15 255.362C665.008 192.023 292.517 344.467 166.914 428.606C8.62343 530.715 -33.8496 640.525 43.2356 789.249C104.904 908.229 862.307 682.675 1233.3 555.026C1407.73 481.529 1635.29 318.7 1150.15 255.362Z" fill="url(#paint0_linear_291_1351)"/>
</g>
<defs>
<linearGradient id="paint0_linear_291_1351" x1="561.927" y1="277.413" x2="649.562" y2="744.824" gradientUnits="userSpaceOnUse">
<stop stop-color="#655DC7"/>
<stop offset="0.25" stop-color="#5F57C0" stop-opacity="0"/>
</linearGradient>
</defs>
</svg>
