<svg width="100%" height="423" preserveAspectRatio="none" viewBox="0 0 1440 423" fill="none" xmlns="http://www.w3.org/2000/svg">
<rect y="-111" width="1440" height="301.38" fill="#6C64D0"/>
<path d="M618 84.6689C389.445 -18.1969 110.771 103.51 -1 173.365V339.99C299 464.5 566.321 398.5 864.5 339.99C1090.57 295.63 1329 339.99 1440 423V-111C1210.44 -96.7818 1183.38 48.4915 1117.72 100.728C1052.06 152.965 903.694 213.251 618 84.6689Z" fill="#6C64D0"/>
<mask id="mask0_153_901" style="mask-type:alpha" maskUnits="userSpaceOnUse" x="-1" y="-111" width="1441" height="456">
<path d="M618 56.0556C389.445 -31.7678 110.771 72.1414 -1 131.781V274.04C272 373.086 614.461 314.128 896.179 274.04C1123.42 241.704 1329 274.04 1440 344.911V-111C1210.44 -98.8609 1183.38 25.1685 1117.72 69.7664C1052.06 114.364 903.694 165.835 618 56.0556Z" fill="#6C64D0"/>
</mask>
<g mask="url(#mask0_153_901)">
<path d="M1149.15 144.362C664.008 81.0229 291.517 233.467 165.914 317.606C7.62343 419.714 -34.8496 529.525 42.2356 678.249C103.904 797.229 861.307 571.675 1232.3 444.026C1406.73 370.529 1634.29 207.7 1149.15 144.362Z" fill="url(#paint0_linear_153_901)"/>
</g>
<ellipse cx="88" cy="82.8228" rx="294" ry="166.911" fill="#655DC7"/>
<defs>
<linearGradient id="paint0_linear_153_901" x1="560.927" y1="166.413" x2="648.562" y2="633.824" gradientUnits="userSpaceOnUse">
<stop stop-color="#655DC7"/>
<stop offset="0.25" stop-color="#5F57C0" stop-opacity="0"/>
</linearGradient>
</defs>
</svg>
