<svg width="56" height="56" viewBox="0 0 56 56" fill="none" xmlns="http://www.w3.org/2000/svg">
<rect x="4" y="4" width="48" height="48" rx="24" fill="white"/>
<rect x="2" y="2" width="52" height="52" rx="26" stroke="white" stroke-opacity="0.24" stroke-width="4"/>
<path d="M26.5495 18.5319C27.3874 17.8253 28.6126 17.8253 29.4505 18.5319L36.2005 24.224C36.7074 24.6515 37 25.2809 37 25.9441V35.7468C37 36.7133 36.2165 37.4968 35.25 37.4968H31.75C30.7835 37.4968 30 36.7133 30 35.7468V30.2468C30 30.1088 29.8881 29.9968 29.75 29.9968H26.25C26.1119 29.9968 26 30.1088 26 30.2468V35.7468C26 36.7133 25.2165 37.4968 24.25 37.4968H20.75C19.7835 37.4968 19 36.7133 19 35.7468V25.9441C19 25.2809 19.2926 24.6515 19.7995 24.224L26.5495 18.5319ZM28.4835 19.6786C28.2042 19.4431 27.7958 19.4431 27.5165 19.6786L20.7665 25.3707C20.5975 25.5132 20.5 25.723 20.5 25.9441V35.7468C20.5 35.8849 20.6119 35.9968 20.75 35.9968H24.25C24.3881 35.9968 24.5 35.8849 24.5 35.7468V30.2468C24.5 29.2803 25.2835 28.4968 26.25 28.4968H29.75C30.7165 28.4968 31.5 29.2803 31.5 30.2468V35.7468C31.5 35.8849 31.6119 35.9968 31.75 35.9968H35.25C35.3881 35.9968 35.5 35.8849 35.5 35.7468V25.9441C35.5 25.723 35.4025 25.5132 35.2335 25.3707L28.4835 19.6786Z" fill="#673F77"/>
</svg>
