<svg width="141" height="73" viewBox="0 0 141 73" fill="none" xmlns="http://www.w3.org/2000/svg">
<circle cx="63.332" cy="35" r="35" fill="#6C64D0"/>
<path d="M63.3319 26.6667C65.6331 26.6667 67.4985 28.5321 67.4985 30.8333V39.1667C67.4985 41.4679 65.6331 43.3333 63.3319 43.3333H57.0819C54.7807 43.3333 52.9152 41.4679 52.9152 39.1667V30.8333C52.9152 28.5321 54.7807 26.6667 57.0819 26.6667H63.3319ZM69.5819 37.4206V32.5796L73.1952 29.1589C74.1912 28.216 75.8319 28.9221 75.8319 30.2936V39.7065C75.8319 41.0779 74.1912 41.784 73.1952 40.841L69.5819 37.4206ZM84.1652 35C84.1652 23.4941 74.8377 14.1667 63.3319 14.1667C51.8259 14.1667 42.4985 23.4941 42.4985 35C42.4985 38.3756 43.3035 41.6375 44.8206 44.5671L42.5963 52.5315C42.4683 52.9894 42.4682 53.4742 42.5963 53.9325C42.9831 55.3177 44.4196 56.1271 45.8049 55.7402L53.7753 53.5167C56.7023 55.0304 59.9604 55.8333 63.3319 55.8333C74.8377 55.8333 84.1652 46.5058 84.1652 35ZM45.6235 35C45.6235 25.2199 53.5518 17.2917 63.3319 17.2917C73.1119 17.2917 81.0402 25.2199 81.0402 35C81.0402 44.78 73.1119 52.7083 63.3319 52.7083C60.274 52.7083 57.332 51.9335 54.7216 50.4781L54.1601 50.165L45.8547 52.4821L48.1729 44.1817L47.859 43.6198C46.4001 41.0071 45.6235 38.0617 45.6235 35Z" fill="white"/>
<path d="M25.7852 46.2397C10.7848 52.5392 1.62978 58.4354 2.60195 61.9396C4.26545 67.9357 34.9506 64.6576 71.1391 54.6179C107.328 44.5781 135.316 31.5785 133.652 25.5824C132.542 21.582 118.515 21.7096 98.554 25.219" stroke="#B4B0E6"/>
<circle cx="132.332" cy="27" r="8" fill="#6C64D0"/>
</svg>
