<svg width="141" height="73" viewBox="0 0 141 73" fill="none" xmlns="http://www.w3.org/2000/svg">
<circle cx="64" cy="35" r="35" fill="#548EF7"/>
<path d="M56.3847 26.9756V37.3592C56.3847 38.4791 57.6284 39.1561 58.5756 38.5521L67.3386 32.9625C67.9213 32.5909 67.9211 31.7436 67.3386 31.372L58.5756 25.7828C57.6284 25.1787 56.3847 25.8558 56.3847 26.9756ZM51.1667 18C47.7609 18 45 20.7485 45 24.1389V41.1389C45 44.5293 47.7609 47.2778 51.1667 47.2778H71.09C74.4958 47.2778 77.2567 44.5293 77.2567 41.1389V24.1389C77.2567 20.7485 74.4958 18 71.09 18H51.1667ZM47.8462 24.1389C47.8462 22.3133 49.3328 20.8333 51.1667 20.8333H71.09C72.9239 20.8333 74.4106 22.3133 74.4106 24.1389V41.1389C74.4106 42.9645 72.9239 44.4444 71.09 44.4444H51.1667C49.3328 44.4444 47.8462 42.9645 47.8462 41.1389V24.1389ZM50.7127 49.1667C51.8086 50.8706 53.7268 52 55.91 52H72.0384C77.54 52 82 47.5602 82 42.0833V28.8611C82 26.6877 80.8655 24.7781 79.1538 23.6872V42.0833C79.1538 45.9954 75.9682 49.1667 72.0384 49.1667H50.7127Z" fill="white"/>
<path d="M26.4532 46.2397C11.4527 52.5392 2.29775 58.4354 3.26992 61.9396C4.93342 67.9357 35.6185 64.6576 71.807 54.6179C107.996 44.5781 135.984 31.5785 134.32 25.5824C133.21 21.582 119.183 21.7096 99.222 25.219" stroke="#99BBF9"/>
<circle cx="133" cy="27" r="8" fill="#548EF7"/>
</svg>
