<svg width="1440" height="299" viewBox="0 0 1440 299" fill="none" xmlns="http://www.w3.org/2000/svg">
<path d="M618 123.324C389.445 58.4907 110.771 135.199 -1 179.226V360.503C474.33 429.875 666.622 402.674 896.179 301.567C1079.83 220.682 1335.25 287.346 1440 330.789V0C1210.44 8.96129 1183.38 100.522 1117.72 133.445C1052.06 166.368 903.694 204.365 618 123.324Z" fill="#654A99"/>
<mask id="mask0_153_470" style="mask-type:alpha" maskUnits="userSpaceOnUse" x="0" y="0" width="1440" height="392">
<path d="M618 123.324C396.301 58.5047 150.643 135.169 42.2245 179.187C20.5 215.086 0 249.485 0 360.425C367.5 412.053 689.82 402.587 912.492 301.502C1090.63 220.634 1338.39 287.284 1440 330.717V0C1217.33 8.95936 1184.19 99.1749 1120.5 132.091C1056.81 165.007 895.124 204.348 618 123.324Z" fill="#548EF7"/>
</mask>
<g mask="url(#mask0_153_470)">
<path d="M832.609 283.343C349.975 228.616 -27.9221 334.973 -156.542 394.993C-318.491 467.734 -364.95 548.066 -293.319 659.082C-236.014 747.895 529.305 593.926 904.802 505.841C1081.84 454.478 1315.24 338.071 832.609 283.343Z" fill="url(#paint0_linear_153_470)"/>
<path d="M698.546 140.576C1061.58 248.898 1438.04 190.905 1580.89 148.369C1759.01 97.5196 1846.86 26.0192 1856.56 -88.5375C1864.33 -180.183 1139.88 -121.528 776.685 -80.7445C599.375 -52.1054 335.512 32.2535 698.546 140.576Z" fill="url(#paint1_linear_153_470)"/>
</g>
<defs>
<linearGradient id="paint0_linear_153_470" x1="243.823" y1="289.929" x2="286.182" y2="639.699" gradientUnits="userSpaceOnUse">
<stop stop-color="#7966BA"/>
<stop offset="0.25" stop-color="#7866BB" stop-opacity="0"/>
</linearGradient>
<linearGradient id="paint1_linear_153_470" x1="1186.76" y1="202.519" x2="1186.76" y2="-137.156" gradientUnits="userSpaceOnUse">
<stop stop-color="#7966BA"/>
<stop offset="0.25" stop-color="#7866BB" stop-opacity="0"/>
</linearGradient>
</defs>
</svg>
