<svg width="222" height="52" viewBox="0 0 222 52" fill="none" xmlns="http://www.w3.org/2000/svg">
<path d="M39.2628 29.7133C38.8468 31.3215 38.3503 32.9731 37.7745 34.6705C37.1976 36.3668 36.5141 38.033 35.7252 39.6657C34.9352 41.2995 34.0114 42.8463 32.9516 44.3039C31.8907 45.7627 30.6597 47.0151 29.2553 48.0623C27.0779 49.6794 24.6648 50.7054 22.017 51.1404C19.3681 51.5753 16.7475 51.5318 14.1541 51.0121C12.0708 50.5939 10.0883 49.8935 8.20451 48.911C6.32068 47.9285 4.72249 46.7017 3.41106 45.2296C2.0985 43.7575 1.13959 42.0657 0.534312 40.1508C-0.0720958 38.2371 -0.162774 36.1549 0.264545 33.9044C0.496907 32.7835 0.9843 31.8133 1.72672 30.9958C2.46915 30.1783 3.34079 29.5282 4.34164 29.0441C5.34136 28.5601 6.4227 28.2334 7.5845 28.0639C8.74518 27.8943 9.85598 27.9155 10.9169 28.1285C11.7024 28.2858 12.3802 28.5233 12.9492 28.8389C13.5182 29.1546 14.0022 29.5337 14.4023 29.9765C14.8013 30.4192 15.1436 30.9412 15.4281 31.5423C15.7126 32.1434 15.9835 32.8114 16.2397 33.5475C16.6047 34.5478 16.9549 35.2828 17.287 35.7512C17.6191 36.2207 17.9626 36.4906 18.3162 36.562C18.9056 36.6802 19.4588 36.2776 19.979 35.3553C20.497 34.433 20.9697 33.34 21.3959 32.0754C21.8209 30.8118 22.1757 29.5438 22.4613 28.2713C22.7447 26.9988 22.9521 26.0542 23.0802 25.4352C22.4897 25.5189 21.7076 25.5423 20.7316 25.5077C19.7569 25.4732 18.6789 25.3371 17.5001 25.1007C14.5916 24.5163 12.4188 22.9538 10.9827 20.4089C10.7174 19.9126 10.4885 19.2825 10.3003 18.5196C10.1099 17.7568 9.99313 16.9382 9.95006 16.0628C9.90585 15.1884 9.93646 14.2985 10.043 13.3929C10.1484 12.4884 10.3241 11.6375 10.5723 10.8412C10.9623 9.5509 11.7511 8.56168 12.9379 7.87247C14.1246 7.18436 15.5222 6.71039 17.1317 6.44942C18.7413 6.18957 20.463 6.12154 22.3004 6.24868C24.1366 6.37582 25.8991 6.6089 27.5891 6.94793C29.1998 7.27135 30.8581 7.71522 32.5628 8.27841C34.2664 8.84272 35.7433 9.67246 36.989 10.7676C38.2664 11.9107 39.1732 13.2602 39.7105 14.8182C40.2466 16.3762 40.5538 18.0077 40.6286 19.7152C40.7045 21.4215 40.5957 23.1323 40.3022 24.8453C40.0086 26.5594 39.6618 28.181 39.2628 29.7111V29.7133ZM39.6357 21.9947C39.6935 21.1215 39.6448 20.0732 39.4883 18.8542C39.3319 17.6353 39.0429 16.4598 38.6235 15.3278C38.203 14.197 37.634 13.1866 36.9188 12.2977C36.2024 11.4089 35.3138 10.858 34.2528 10.6449C33.5059 10.4955 32.8167 10.7096 32.1854 11.2873C31.5529 11.865 31.2582 13.0449 31.2979 14.8249C31.3103 15.552 31.4951 16.4353 31.8533 17.4736C32.2103 18.5118 32.666 19.52 33.2214 20.497C33.7756 21.475 34.4228 22.3494 35.1641 23.1222C35.9032 23.8951 36.6875 24.3646 37.5127 24.5297C38.0624 24.6401 38.5317 24.5029 38.9182 24.117C39.3047 23.7323 39.5439 23.0252 39.6345 21.9958L39.6357 21.9947Z" fill="white"/>
<path d="M73.8158 47.9006C71.1963 47.8972 69.1198 47.1946 67.5839 45.7917C66.0481 44.3887 64.9407 42.5106 64.2606 40.1575L60.5031 39.9846C60.3886 40.3203 60.2356 40.7597 60.0463 41.3006C59.8548 41.8426 59.627 42.4114 59.3606 43.008C59.0942 43.6058 58.7893 44.2114 58.447 44.8281C58.1047 45.4437 57.7239 45.9757 57.3056 46.4229C56.6584 47.1701 55.814 47.6909 54.77 47.9887C53.725 48.2865 52.6527 48.4337 51.5521 48.4326C50.0718 48.4303 48.6481 48.224 47.2823 47.8114C45.9165 47.3987 44.6833 46.6694 43.5838 45.6222C42.5977 44.6497 42.0581 43.0348 41.9675 40.7742C41.8757 38.5147 42.21 35.9285 42.974 33.0166C43.6609 30.2163 44.6799 27.2486 46.0321 24.1126C47.3832 20.9765 49.029 17.9174 50.9695 14.9308C51.6156 13.9237 52.4045 12.7851 53.3373 11.5159C54.269 10.2479 55.305 9.0535 56.4453 7.93491C57.5856 6.81633 58.8007 5.86503 60.0928 5.08213C61.3838 4.29924 62.6941 3.9089 64.0226 3.91113C65.844 3.91337 67.5239 4.2892 69.0597 5.03753C70.5956 5.78697 71.9795 6.74942 73.2127 7.92822C74.4437 9.10591 75.5443 10.4241 76.51 11.8817C77.4757 13.3394 78.3179 14.8159 79.0377 16.3104C80.06 18.4405 80.9487 20.6642 81.7047 22.9806C82.4607 25.2981 83.074 27.5676 83.5466 29.7891C84.0181 32.0118 84.3378 34.104 84.5067 36.0646C84.6744 38.0252 84.7016 39.7159 84.5849 41.1344V41.3586C84.4307 42.5162 83.9739 43.5054 83.2145 44.3263C82.4539 45.1471 81.5415 45.8285 80.4783 46.3671C79.414 46.908 78.2941 47.2984 77.1176 47.5393C75.9399 47.7813 74.8393 47.9006 73.8146 47.8995L73.8158 47.9006ZM60.519 27.1003C60.4793 28.0337 60.6879 28.6694 61.1424 29.0062C61.5969 29.343 62.1285 29.5114 62.7361 29.5125C63.3051 29.5125 63.8752 29.4021 64.4442 29.1791C65.0143 28.956 65.4598 28.4798 65.784 27.7527C66.107 27.0244 66.26 26.2884 66.2419 25.5401C66.2238 24.7929 66.0345 24.1204 65.6752 23.5226C65.3147 22.9248 64.7559 22.6248 63.9965 22.6237C63.9205 22.6237 63.8253 22.6326 63.712 22.6516C63.5975 22.6706 63.5023 22.6795 63.4275 22.6795C63.313 22.7174 63.1044 22.81 62.8007 22.9583C62.4958 23.1077 62.1829 23.3497 61.8599 23.6854C61.5369 24.0211 61.241 24.4605 60.9758 25.0003C60.7094 25.5423 60.5564 26.2415 60.5179 27.1003H60.519ZM72.8976 9.63677C72.4805 9.22524 71.9965 8.87952 71.4468 8.59848C70.8959 8.31744 70.3553 8.17692 69.8248 8.17581C69.4065 8.17581 69.0178 8.25833 68.6573 8.42673C68.2957 8.59402 68.0022 8.88398 67.7732 9.29439C67.5454 9.70591 67.4014 10.2278 67.3436 10.8624C67.2858 11.4981 67.3504 12.3011 67.5397 13.2713C67.6531 13.9817 67.8888 14.72 68.2481 15.4851C68.6074 16.2512 69.0234 17.0085 69.4972 17.7557C69.971 18.504 70.5003 19.2133 71.0886 19.8869C71.6758 20.5594 72.2731 21.1583 72.8795 21.6813C73.6378 22.3181 74.3587 22.8312 75.041 23.2248C75.7234 23.6174 76.3298 23.8148 76.8625 23.8148C77.3953 23.8148 77.8112 23.5917 78.1161 23.1445C78.4199 22.6962 78.5344 21.9691 78.4607 20.9598C78.3111 19.2423 77.9711 17.71 77.4417 16.365C76.9113 15.02 76.3343 13.8702 75.7098 12.9178C75.0841 11.9643 74.506 11.2171 73.9756 10.6751C73.444 10.133 73.0847 9.78732 72.8954 9.63677H72.8976Z" fill="white"/>
<path d="M105.06 2.97094C107.992 3.58433 110.682 4.60588 113.129 6.03339C115.575 7.46201 117.642 9.21182 119.329 11.2828C121.015 13.3538 122.255 15.6947 123.05 18.3044C123.843 20.914 124.055 23.7077 123.684 26.6843C123.251 29.7634 122.266 32.6117 120.731 35.2303C119.438 37.4418 117.875 39.3288 116.044 40.8935C114.211 42.4571 112.217 43.6928 110.063 44.5961C107.907 45.5006 105.624 46.0537 103.213 46.2556C100.802 46.4585 98.3528 46.2979 95.866 45.7782C94.0842 45.4058 92.2446 44.8481 90.3471 44.1087C89.7396 43.8667 89.2012 43.5734 88.7331 43.2266C88.2638 42.8809 87.8784 42.3322 87.5746 41.5816C87.2493 40.7508 87.0396 39.7035 86.9433 38.4422C86.847 37.182 86.8243 35.8024 86.8764 34.3047C86.9286 32.808 87.0328 31.2445 87.1915 29.6162C87.3491 27.988 87.5327 26.4233 87.7413 24.9199C87.9498 23.4166 88.1641 22.0214 88.3851 20.73C88.6061 19.4397 88.8022 18.3936 88.9767 17.5895C89.4698 14.9441 90.0207 12.5776 90.6271 10.4888C91.2324 8.40104 91.8388 6.94342 92.4452 6.11592C93.1196 5.15012 93.9606 4.39956 94.9683 3.86648C95.9759 3.33228 97.0448 2.96537 98.176 2.76239C99.3061 2.56054 100.467 2.48805 101.657 2.54604C102.847 2.60403 103.981 2.74567 105.057 2.97094H105.06ZM106.338 21.5664C105.744 21.4426 105.128 21.4661 104.489 21.6378C103.85 21.8095 103.26 22.0772 102.716 22.4408C102.171 22.8043 101.697 23.2493 101.292 23.7757C100.887 24.3021 100.621 24.8575 100.495 25.4419C100.382 26.1434 100.65 26.6965 101.301 27.0991C101.95 27.5028 102.573 27.766 103.168 27.8909C103.65 27.9913 104.126 27.9478 104.594 27.7593C105.061 27.5709 105.487 27.3066 105.871 26.9675C106.254 26.6285 106.591 26.2404 106.88 25.8043C107.168 25.3694 107.378 24.9344 107.51 24.504C107.711 23.9352 107.775 23.4523 107.706 23.0564C107.58 22.3817 107.125 21.8854 106.339 21.5675L106.338 21.5664ZM119.015 13.2791C118.62 12.5865 118.107 11.8672 117.472 11.1233C116.837 10.3806 116.132 9.68914 115.359 9.04899C114.585 8.40996 113.775 7.849 112.929 7.3661C112.083 6.88431 111.232 6.55309 110.379 6.37465C110.045 6.30439 109.675 6.26536 109.269 6.25755C108.864 6.24974 108.468 6.28097 108.085 6.35346C107.699 6.42595 107.35 6.56313 107.035 6.76387C106.72 6.96461 106.485 7.24119 106.332 7.59026C106.17 7.97725 106.143 8.42 106.25 8.91851C106.354 9.41814 106.642 10.0226 107.11 10.7308C108.045 12.1494 109.335 13.3159 110.981 14.2326C112.626 15.1493 114.246 15.775 115.843 16.1084C116.548 16.2557 117.193 16.3248 117.778 16.3125C118.363 16.3014 118.814 16.1854 119.134 15.9657C119.452 15.746 119.62 15.4192 119.637 14.9832C119.653 14.5482 119.447 13.9795 119.016 13.278L119.015 13.2791Z" fill="white"/>
<path d="M169.928 36.562C167.526 40.3348 164.482 43.288 160.796 45.4225C157.109 47.5582 153.033 48.6255 148.567 48.6255C146.165 48.6255 143.785 48.3143 141.425 47.6932C139.065 47.0709 136.884 46.1385 134.884 44.895C132.882 43.6515 131.144 42.108 129.67 40.2623C128.194 38.4177 127.142 36.2731 126.509 33.8263C126.172 32.4579 125.982 31.0181 125.94 29.5047C125.897 27.9925 126.045 26.3642 126.382 24.6233C126.846 21.9713 127.52 19.597 128.405 17.5037C129.29 15.4104 130.278 13.5546 131.375 11.9386C132.554 10.239 133.903 8.65313 135.42 7.18213C136.936 5.71114 138.589 4.44645 140.381 3.38921C142.172 2.33196 144.078 1.50334 146.1 0.902228C148.122 0.30223 150.208 0 152.357 0C155.012 0 157.539 0.434943 159.941 1.30594C162.343 2.17695 164.492 3.39925 166.387 4.97508C168.284 6.55091 169.884 8.4167 171.191 10.5713C172.497 12.7271 173.381 15.1104 173.845 17.7223C174.435 21.0802 174.371 24.3758 173.656 27.6088C172.94 30.8419 171.698 33.8274 169.927 36.5631L169.928 36.562ZM145.09 24.436C144.963 25.307 145.017 26.0531 145.248 26.6743C145.479 27.2966 145.827 27.804 146.291 28.1977C146.754 28.5925 147.292 28.8925 147.903 29.0988C148.512 29.3062 149.135 29.4099 149.767 29.4099H150.4C150.61 29.4099 150.82 29.3687 151.032 29.2862C152.38 28.9549 153.454 28.1665 154.256 26.923C155.056 25.6795 155.33 24.3323 155.077 22.8813C154.867 21.7215 154.329 20.8193 153.466 20.1769C152.602 19.5345 151.643 19.2133 150.59 19.2133C149.873 19.2133 149.209 19.3594 148.6 19.6483C147.989 19.9382 147.44 20.3319 146.956 20.8293C146.471 21.3267 146.071 21.8866 145.756 22.5077C145.44 23.13 145.218 23.7724 145.093 24.4349L145.09 24.436ZM163.734 5.15909C162.975 4.53679 162.069 4.22675 161.016 4.22675C160.552 4.22675 160.109 4.32043 159.688 4.50668C159.267 4.69292 158.951 5.00407 158.741 5.43902C158.53 5.87396 158.435 6.455 158.456 7.1799C158.477 7.90592 158.677 8.78696 159.057 9.82302C159.352 10.6528 159.911 11.5951 160.732 12.6524C161.554 13.7096 162.491 14.7044 163.544 15.6368C164.597 16.5691 165.703 17.3576 166.862 17.9999C168.021 18.6434 169.084 18.9635 170.054 18.9635C170.727 18.9635 171.212 18.7148 171.507 18.2174C171.802 17.72 171.802 16.9115 171.507 15.7918C171.169 14.4658 170.727 13.2836 170.18 12.2475C169.632 11.2115 169.063 10.2892 168.474 9.48064C167.883 8.67209 167.283 7.97841 166.673 7.39737C166.062 6.81745 165.525 6.36132 165.061 6.02898C164.639 5.65537 164.323 5.42898 164.113 5.34534C163.988 5.26281 163.861 5.20036 163.734 5.15909Z" fill="white"/>
<path d="M220.316 32.7757C219.363 36.969 217.56 40.6203 214.903 43.7295C212.246 46.8399 208.886 49.1005 204.823 50.5146C202.638 51.2752 200.37 51.7459 198.02 51.9265C195.669 52.1083 193.381 51.9488 191.154 51.4514C188.925 50.9529 186.84 50.0987 184.895 48.8864C182.949 47.6752 181.29 46.057 179.915 44.0307C179.16 42.8931 178.518 41.6429 177.985 40.2779C177.451 38.9151 177.053 37.3872 176.791 35.6965C176.346 33.1359 176.183 30.7627 176.304 28.5779C176.425 26.3932 176.718 24.3913 177.187 22.5735C177.704 20.6541 178.413 18.7839 179.312 16.9649C180.211 15.146 181.301 13.472 182.586 11.943C183.869 10.414 185.333 9.05678 186.977 7.86905C188.62 6.68244 190.42 5.74787 192.375 5.06757C194.791 4.2278 197.233 3.82297 199.703 3.85531C202.173 3.88765 204.529 4.32036 206.768 5.15345C209.009 5.98765 211.075 7.1776 212.968 8.72556C214.861 10.2746 216.446 12.1627 217.722 14.3921C219.357 17.2605 220.377 20.2794 220.783 23.4478C221.187 26.6173 221.033 29.7266 220.318 32.7757H220.316ZM193.751 29.6039C193.921 30.4359 194.213 31.0983 194.628 31.5913C195.041 32.0842 195.524 32.4366 196.075 32.6474C196.626 32.8593 197.212 32.963 197.837 32.9575C198.46 32.953 199.06 32.8504 199.634 32.6508L200.209 32.4511C200.4 32.3842 200.578 32.2805 200.744 32.1378C201.861 31.4095 202.582 30.3523 202.904 28.9671C203.225 27.582 203.035 26.2705 202.331 25.0292C201.759 24.04 200.975 23.3898 199.98 23.0776C198.984 22.7664 198.007 22.7776 197.049 23.111C196.396 23.3385 195.84 23.6809 195.379 24.137C194.918 24.5954 194.548 25.1262 194.271 25.7318C193.992 26.3374 193.812 26.9742 193.727 27.64C193.643 28.3058 193.652 28.9616 193.753 29.6039H193.751ZM204.413 6.16274C203.52 5.83709 202.593 5.84155 201.635 6.17389C201.212 6.3211 200.84 6.54526 200.518 6.84861C200.195 7.15195 200.009 7.53448 199.961 7.9973C199.911 8.46013 200.014 9.01886 200.271 9.67128C200.527 10.3248 200.998 11.0631 201.681 11.8861C202.221 12.5475 203.037 13.2289 204.131 13.9304C205.224 14.6319 206.402 15.2408 207.666 15.756C208.929 16.2713 210.192 16.6382 211.457 16.8556C212.721 17.0742 213.795 17.0296 214.676 16.7218C215.29 16.5088 215.649 16.1285 215.756 15.5832C215.861 15.0378 215.597 14.3017 214.962 13.3761C214.221 12.2765 213.432 11.3408 212.595 10.5713C211.758 9.80176 210.938 9.14265 210.138 8.59396C209.337 8.04526 208.564 7.60474 207.818 7.26905C207.072 6.93448 206.434 6.69025 205.905 6.53411C205.399 6.32779 205.037 6.22073 204.819 6.21181C204.677 6.17612 204.541 6.16051 204.413 6.16162V6.16274Z" fill="white"/>
</svg>
