<svg width="141" height="73" viewBox="0 0 141 73" fill="none" xmlns="http://www.w3.org/2000/svg">
<circle cx="63.332" cy="35" r="35" fill="#6EAE47"/>
<path d="M54.5329 31.5216C50.556 31.5216 47.3322 34.7276 47.3322 38.6823C47.3322 40.499 48.0126 42.1579 49.1339 43.4204L49.134 51.6553C49.134 52.6769 50.222 53.3009 51.096 52.8525L51.2571 52.7557L54.5335 50.4784L57.8086 52.7557C58.6508 53.3408 59.7884 52.8114 59.9193 51.842L59.9317 51.6553L59.9335 43.4185C61.0538 42.1563 61.7335 40.4981 61.7335 38.6823C61.7335 34.7276 58.5097 31.5216 54.5329 31.5216ZM51.8353 45.3234C52.6684 45.6583 53.579 45.8428 54.5329 45.8428C55.4881 45.8428 56.3999 45.658 57.234 45.322L57.2333 49.0788L55.306 47.7415C54.8997 47.4593 54.3761 47.424 53.9404 47.6358L53.7597 47.7415L51.8355 49.0788L51.8353 45.3234ZM52.2842 19C49.6518 19 47.4994 21.0435 47.3436 23.6223L47.3345 23.9221L47.332 33.3116C48.0597 32.3483 48.9784 31.5357 50.0321 30.9294L50.0343 23.9221C50.0343 22.7637 50.9196 21.8109 52.0541 21.6964L52.2842 21.6848H78.3824C79.5473 21.6848 80.5053 22.5652 80.6205 23.6934L80.6322 23.9221V40.9259C80.6322 42.0843 79.7469 43.037 78.6124 43.1518L78.3824 43.1632L62.3246 43.1654L62.1016 43.5278L61.8611 43.8799L61.7335 44.0471L61.7353 45.848H78.3824C81.0147 45.848 83.1672 43.8045 83.323 41.2257L83.332 40.9259V23.9221C83.332 21.3044 81.2771 19.164 78.6839 19.009L78.3824 19H52.2842ZM54.5329 34.2064C57.0186 34.2064 59.0337 36.2103 59.0337 38.6823C59.0337 41.1541 57.0186 43.158 54.5329 43.158C52.0471 43.158 50.032 41.1541 50.032 38.6823C50.032 36.2103 52.0471 34.2064 54.5329 34.2064ZM66.6832 35.9962C65.9377 35.9962 65.3333 36.5973 65.3333 37.3386C65.3333 38.0183 65.8412 38.5799 66.5 38.6689L66.6832 38.681H74.7826C75.5281 38.681 76.1325 38.08 76.1325 37.3386C76.1325 36.659 75.6246 36.0974 74.9658 36.0086L74.7826 35.9962H66.6832ZM55.8839 26.152C55.1384 26.152 54.534 26.753 54.534 27.4944C54.534 28.174 55.0419 28.7356 55.7008 28.8245L55.8839 28.8368H74.7826C75.5281 28.8368 76.1325 28.2357 76.1325 27.4944C76.1325 26.8148 75.6246 26.2531 74.9658 26.1642L74.7826 26.152H55.8839Z" fill="white"/>
<path d="M25.7852 46.2397C10.7848 52.5392 1.62978 58.4354 2.60195 61.9396C4.26545 67.9357 34.9506 64.6576 71.1391 54.6179C107.328 44.5781 135.316 31.5785 133.652 25.5824C132.542 21.582 118.515 21.7096 98.554 25.219" stroke="#B3D1A0"/>
<circle cx="132.332" cy="27" r="8" fill="#6EAE47"/>
</svg>
