<svg width="141" height="73" viewBox="0 0 141 73" fill="none" xmlns="http://www.w3.org/2000/svg">
<circle cx="63.332" cy="35" r="35" fill="#548EF7"/>
<path d="M55.7168 26.9756V37.3592C55.7168 38.4791 56.9604 39.1561 57.9076 38.5521L66.6706 32.9625C67.2533 32.5909 67.2531 31.7436 66.6706 31.372L57.9076 25.7828C56.9604 25.1787 55.7168 25.8558 55.7168 26.9756ZM50.4988 18C47.093 18 44.332 20.7485 44.332 24.1389V41.1389C44.332 44.5293 47.093 47.2778 50.4988 47.2778H70.422C73.8278 47.2778 76.5888 44.5293 76.5888 41.1389V24.1389C76.5888 20.7485 73.8278 18 70.422 18H50.4988ZM47.1782 24.1389C47.1782 22.3133 48.6649 20.8333 50.4988 20.8333H70.422C72.2559 20.8333 73.7426 22.3133 73.7426 24.1389V41.1389C73.7426 42.9645 72.2559 44.4444 70.422 44.4444H50.4988C48.6649 44.4444 47.1782 42.9645 47.1782 41.1389V24.1389ZM50.0448 49.1667C51.1406 50.8706 53.0589 52 55.2421 52H71.3704C76.8721 52 81.332 47.5602 81.332 42.0833V28.8611C81.332 26.6877 80.1975 24.7781 78.4858 23.6872V42.0833C78.4858 45.9954 75.3002 49.1667 71.3704 49.1667H50.0448Z" fill="white"/>
<path d="M25.7852 46.2397C10.7848 52.5392 1.62978 58.4354 2.60195 61.9396C4.26545 67.9357 34.9506 64.6576 71.1391 54.6179C107.328 44.5781 135.316 31.5785 133.652 25.5824C132.542 21.582 118.515 21.7096 98.554 25.219" stroke="#99BBF9"/>
<circle cx="132.332" cy="27" r="8" fill="#548EF7"/>
</svg>
